<svg xmlns="http://www.w3.org/2000/svg" version="1.1" viewBox="0 0 960 500" width="1920" height="1000"><g class="canvas" transform="translate(30,60)"><g class="content"><text class="dot-label has-pointer" text-anchor="middle" font-size="0.7rem" fill="#000" x="777.1644855622355" y="180.67327295335224"><tspan dy="0" x="777.1644855622355">Primary</tspan><tspan dy="14" x="777.1644855622355">immunodeficiency</tspan></text><text class="dot-label has-pointer" text-anchor="middle" font-size="0.7rem" fill="#000" x="697.3402790445713" y="169.82141013891192"><tspan dy="0" x="697.3402790445713">Drug metabolism</tspan></text><text class="dot-label has-pointer" text-anchor="middle" font-size="0.7rem" fill="#000" x="672.0384308938807" y="240.1077369266788"><tspan dy="0" x="672.0384308938807">Metabolism of</tspan><tspan dy="14" x="672.0384308938807">xenobiotics by</tspan><tspan dy="14" x="672.0384308938807">cytochrome P450</tspan></text><text class="dot-label has-pointer" text-anchor="middle" font-size="0.7rem" fill="#000" x="607.7698301225228" y="240.77453185782346"><tspan dy="0" x="607.7698301225228">Retrograde</tspan><tspan dy="14" x="607.7698301225228">endocannabinoid</tspan><tspan dy="14" x="607.7698301225228">signaling</tspan></text><text class="dot-label has-pointer" text-anchor="middle" font-size="0.7rem" fill="#000" x="713.5767123005193" y="217.29192297841365"><tspan dy="0" x="713.5767123005193">Legionellosis</tspan></text><text class="dot-label has-pointer" text-anchor="middle" font-size="0.7rem" fill="#000" x="650.1236951566237" y="158.88412116125116"><tspan dy="0" x="650.1236951566237">Chemical</tspan><tspan dy="14" x="650.1236951566237">carcinogenesis</tspan></text><text class="dot-label has-pointer" text-anchor="middle" font-size="0.7rem" fill="#000" x="560.2985342425836" y="162.58739444844073"><tspan dy="0" x="560.2985342425836">Necroptosis</tspan></text><text class="dot-label has-pointer" text-anchor="middle" font-size="0.7rem" fill="#000" x="573.4957700422995" y="237.58044849352885"><tspan dy="0" x="573.4957700422995">T cell receptor signaling</tspan><tspan dy="14" x="573.4957700422995">pathway</tspan></text><text class="dot-label has-pointer" text-anchor="middle" font-size="0.7rem" fill="#000" x="511.2572922874278" y="233.45494173531173"><tspan dy="0" x="511.2572922874278">Cytokine-cytokine</tspan><tspan dy="14" x="511.2572922874278">receptor interaction</tspan></text><text class="dot-label has-pointer" text-anchor="middle" font-size="0.7rem" fill="#000" x="622.685159151005" y="159.57961345166314"><tspan dy="0" x="622.685159151005">Glutathione metabolism</tspan></text><circle class="wg-volcano-dot has-pointer" r="3.321928094887362" cx="782.9809129843253" cy="200" fill="rgb(195, 195, 223)"></circle><circle class="wg-volcano-dot has-pointer" r="3.584962500721156" cx="675.8803510612687" cy="200" fill="rgb(189, 189, 220)"></circle><circle class="wg-volcano-dot has-pointer" r="3.584962500721156" cx="662.3865430298547" cy="200" fill="rgb(189, 189, 220)"></circle><circle class="wg-volcano-dot has-pointer" r="4.169925001442312" cx="604.5186777292677" cy="200" fill="rgb(172, 170, 209)"></circle><circle class="wg-volcano-dot has-pointer" r="3.321928094887362" cx="687.2597765026812" cy="200" fill="rgb(195, 195, 223)"></circle><circle class="wg-volcano-dot has-pointer" r="3.584962500721156" cx="640.4828753823439" cy="200" fill="rgb(189, 189, 220)"></circle><circle class="wg-volcano-dot has-pointer" r="4.169925001442312" cx="571.0781961555282" cy="200" fill="rgb(172, 170, 209)"></circle><circle class="wg-volcano-dot has-pointer" r="3.584962500721156" cx="584.8341667572784" cy="200" fill="rgb(189, 189, 220)"></circle><circle class="wg-volcano-dot has-pointer" r="4.700439718141093" cx="517.646451334935" cy="200" fill="rgb(148, 145, 196)"></circle><circle class="wg-volcano-dot has-pointer" r="3" cx="630.2488172983725" cy="200" fill="rgb(201, 201, 226)"></circle><circle class="wg-volcano-dot" r="3.321928094887362" cx="597.4408817004506" cy="200" fill="rgb(195, 195, 223)"></circle><circle class="wg-volcano-dot" r="3" cx="621.8165862845407" cy="200" fill="rgb(201, 201, 226)"></circle><circle class="wg-volcano-dot" r="3.584962500721156" cx="573.3159131023224" cy="200" fill="rgb(189, 189, 220)"></circle><circle class="wg-volcano-dot" r="2.584962500721156" cx="662.3865430298547" cy="200" fill="rgb(206, 207, 229)"></circle><circle class="wg-volcano-dot" r="3.321928094887362" cx="582.9530622201786" cy="200" fill="rgb(195, 195, 223)"></circle><circle class="wg-volcano-dot" r="4" cx="535.9628060285402" cy="200" fill="rgb(177, 176, 213)"></circle><circle class="wg-volcano-dot" r="2" cx="717.5377227661845" cy="200" fill="rgb(212, 212, 232)"></circle><circle class="wg-volcano-dot" r="3.321928094887362" cx="566.6654065482109" cy="200" fill="rgb(195, 195, 223)"></circle><circle class="wg-volcano-dot" r="3.584962500721156" cx="545.7599533702956" cy="200" fill="rgb(189, 189, 220)"></circle><circle class="wg-volcano-dot" r="2" cx="869.0649003481122" cy="200" fill="rgb(218, 218, 235)"></circle><circle class="wg-volcano-dot" r="2.584962500721156" cx="609.7074002301048" cy="200" fill="rgb(206, 207, 229)"></circle><circle class="wg-volcano-dot" r="3.321928094887362" cx="551.4293221932411" cy="200" fill="rgb(195, 195, 223)"></circle><circle class="wg-volcano-dot" r="2" cx="672.4339048839876" cy="200" fill="rgb(212, 212, 232)"></circle><circle class="wg-volcano-dot" r="2.584962500721156" cx="604.5186777292677" cy="200" fill="rgb(206, 207, 229)"></circle><circle class="wg-volcano-dot" r="3" cx="569.9672417743689" cy="200" fill="rgb(201, 201, 226)"></circle><circle class="wg-volcano-dot" r="4.169925001442312" cx="505.40068594760254" cy="200" fill="rgb(172, 170, 209)"></circle><circle class="wg-volcano-dot" r="2.584962500721156" cx="599.4415493549841" cy="200" fill="rgb(206, 207, 229)"></circle><circle class="wg-volcano-dot" r="3.584962500721156" cx="528.4076854304246" cy="200" fill="rgb(189, 189, 220)"></circle><circle class="wg-volcano-dot" r="2" cx="826.0229066662185" cy="200" fill="rgb(218, 218, 235)"></circle><circle class="wg-volcano-dot" r="2" cx="643.4902710884109" cy="200" fill="rgb(212, 212, 232)"></circle><circle class="wg-volcano-dot" r="2.584962500721156" cx="584.8341667572784" cy="200" fill="rgb(206, 207, 229)"></circle><circle class="wg-volcano-dot" r="2" cx="634.5806337029314" cy="200" fill="rgb(212, 212, 232)"></circle><circle class="wg-volcano-dot" r="3.321928094887362" cx="528.0362024736351" cy="200" fill="rgb(195, 195, 223)"></circle><circle class="wg-volcano-dot" r="2" cx="617.7107893997143" cy="200" fill="rgb(212, 212, 232)"></circle><circle class="wg-volcano-dot" r="3.584962500721156" cx="508.79754124762394" cy="200" fill="rgb(189, 189, 220)"></circle><circle class="wg-volcano-dot" r="4" cx="491.48568713483604" cy="200" fill="rgb(177, 176, 213)"></circle><circle class="wg-volcano-dot" r="3.321928094887362" cx="519.291596461759" cy="200" fill="rgb(195, 195, 223)"></circle><circle class="wg-volcano-dot" r="2" cx="758.107679511499" cy="200" fill="rgb(218, 218, 235)"></circle><circle class="wg-volcano-dot" r="3.321928094887362" cx="515.037835065459" cy="200" fill="rgb(195, 195, 223)"></circle><circle class="wg-volcano-dot" r="3.584962500721156" cx="498.750179393491" cy="200" fill="rgb(189, 189, 220)"></circle><circle class="wg-volcano-dot" r="2" cx="730.3017701845752" cy="200" fill="rgb(218, 218, 235)"></circle><circle class="wg-volcano-dot" r="2" cx="594.4713158751348" cy="200" fill="rgb(212, 212, 232)"></circle><circle class="wg-volcano-dot" r="2" cx="594.4713158751348" cy="200" fill="rgb(212, 212, 232)"></circle><circle class="wg-volcano-dot" r="3" cx="521.98965291807" cy="200" fill="rgb(201, 201, 226)"></circle><circle class="wg-volcano-dot" r="3.807354922057604" cx="486.4303040164348" cy="200" fill="rgb(183, 183, 216)"></circle><circle class="wg-volcano-dot" r="3" cx="519.291596461759" cy="200" fill="rgb(201, 201, 226)"></circle><circle class="wg-volcano-dot" r="2" cx="580.1592145796247" cy="200" fill="rgb(212, 212, 232)"></circle><circle class="wg-volcano-dot" r="2" cx="580.1592145796247" cy="200" fill="rgb(212, 212, 232)"></circle><circle class="wg-volcano-dot" r="2.584962500721156" cx="534.0512379298351" cy="200" fill="rgb(206, 207, 229)"></circle><circle class="wg-volcano-dot" r="2.584962500721156" cx="534.0512379298351" cy="200" fill="rgb(206, 207, 229)"></circle><circle class="wg-volcano-dot" r="2.584962500721156" cx="534.0512379298351" cy="200" fill="rgb(206, 207, 229)"></circle><circle class="wg-volcano-dot" r="3.321928094887362" cx="494.84798525550434" cy="200" fill="rgb(195, 195, 223)"></circle><circle class="wg-volcano-dot" r="3" cx="506.24532860291237" cy="200" fill="rgb(201, 201, 226)"></circle><circle class="wg-volcano-dot" r="2" cx="566.6654065482109" cy="200" fill="rgb(212, 212, 232)"></circle><circle class="wg-volcano-dot" r="2" cx="566.6654065482109" cy="200" fill="rgb(212, 212, 232)"></circle><circle class="wg-volcano-dot" r="2.584962500721156" cx="526.5560887204156" cy="200" fill="rgb(206, 207, 229)"></circle><circle class="wg-volcano-dot" r="4.169925001442312" cx="464.2397968028081" cy="200" fill="rgb(172, 170, 209)"></circle><circle class="wg-volcano-dot" r="2.584962500721156" cx="519.291596461759" cy="200" fill="rgb(206, 207, 229)"></circle><circle class="wg-volcano-dot" r="3" cx="498.750179393491" cy="200" fill="rgb(201, 201, 226)"></circle><circle class="wg-volcano-dot" r="3" cx="496.3037598808775" cy="200" fill="rgb(201, 201, 226)"></circle><circle class="wg-volcano-dot" r="4" cx="464.4759922905723" cy="200" fill="rgb(177, 176, 213)"></circle><circle class="wg-volcano-dot" r="5.087462841250339" cx="443.309866283204" cy="200" fill="rgb(127, 119, 183)"></circle><circle class="wg-volcano-dot" r="3" cx="491.48568713483604" cy="200" fill="rgb(201, 201, 226)"></circle><circle class="wg-volcano-dot" r="2" cx="643.4902710884109" cy="200" fill="rgb(218, 218, 235)"></circle><circle class="wg-volcano-dot" r="2.584962500721156" cx="508.79754124762394" cy="200" fill="rgb(206, 207, 229)"></circle><circle class="wg-volcano-dot" r="3" cx="489.113030275635" cy="200" fill="rgb(201, 201, 226)"></circle><circle class="wg-volcano-dot" r="2.584962500721156" cx="505.40068594760254" cy="200" fill="rgb(206, 207, 229)"></circle><circle class="wg-volcano-dot" r="3.807354922057604" cx="462.3586922657081" cy="200" fill="rgb(183, 183, 216)"></circle><circle class="wg-volcano-dot" r="3" cx="484.4380780979821" cy="200" fill="rgb(201, 201, 226)"></circle><circle class="wg-volcano-dot" r="2" cx="530.2739194204289" cy="200" fill="rgb(212, 212, 232)"></circle><circle class="wg-volcano-dot" r="2.584962500721156" cx="498.750179393491" cy="200" fill="rgb(206, 207, 229)"></circle><circle class="wg-volcano-dot" r="2.584962500721156" cx="495.4938881764126" cy="200" fill="rgb(206, 207, 229)"></circle><circle class="wg-volcano-dot" r="4.169925001442312" cx="446.9470204200662" cy="200" fill="rgb(172, 170, 209)"></circle><circle class="wg-volcano-dot" r="2.584962500721156" cx="489.113030275635" cy="200" fill="rgb(206, 207, 229)"></circle><circle class="wg-volcano-dot" r="2" cx="508.79754124762394" cy="200" fill="rgb(212, 212, 232)"></circle><circle class="wg-volcano-dot" r="2" cx="508.79754124762394" cy="200" fill="rgb(212, 212, 232)"></circle><circle class="wg-volcano-dot" r="4" cx="445.08942449205125" cy="200" fill="rgb(177, 176, 213)"></circle><circle class="wg-volcano-dot" r="2.584962500721156" cx="479.8539074520479" cy="200" fill="rgb(206, 207, 229)"></circle><circle class="wg-volcano-dot" r="2" cx="580.1592145796247" cy="200" fill="rgb(218, 218, 235)"></circle><circle class="wg-volcano-dot" r="2" cx="580.1592145796247" cy="200" fill="rgb(218, 218, 235)"></circle><circle class="wg-volcano-dot" r="2" cx="503.72041287333985" cy="200" fill="rgb(212, 212, 232)"></circle><circle class="wg-volcano-dot" r="2" cx="503.72041287333985" cy="200" fill="rgb(212, 212, 232)"></circle><circle class="wg-volcano-dot" r="3" cx="462.35869226570986" cy="200" fill="rgb(201, 201, 226)"></circle><circle class="wg-volcano-dot" r="3" cx="462.35869226570986" cy="200" fill="rgb(201, 201, 226)"></circle><circle class="wg-volcano-dot" r="3.321928094887362" cx="454.0744257633496" cy="200" fill="rgb(195, 195, 223)"></circle><circle class="wg-volcano-dot" r="2" cx="498.750179393491" cy="200" fill="rgb(212, 212, 232)"></circle><circle class="wg-volcano-dot" r="2" cx="498.750179393491" cy="200" fill="rgb(212, 212, 232)"></circle><circle class="wg-volcano-dot" r="2" cx="566.6654065482109" cy="200" fill="rgb(218, 218, 235)"></circle><circle class="wg-volcano-dot" r="3.584962500721156" cx="443.4624203242641" cy="200" fill="rgb(189, 189, 220)"></circle><circle class="wg-volcano-dot" r="3" cx="454.0744257633496" cy="200" fill="rgb(201, 201, 226)"></circle><circle class="wg-volcano-dot" r="3.321928094887362" cx="446.07103659374116" cy="200" fill="rgb(195, 195, 223)"></circle><circle class="wg-volcano-dot" r="2.584962500721156" cx="462.3586922657081" cy="200" fill="rgb(206, 207, 229)"></circle><circle class="wg-volcano-dot" r="2" cx="541.7921730753842" cy="200" fill="rgb(218, 218, 235)"></circle><circle class="wg-volcano-dot" r="3" cx="448.0465909701992" cy="200" fill="rgb(201, 201, 226)"></circle><circle class="wg-volcano-dot" r="3" cx="446.07103659374116" cy="200" fill="rgb(201, 201, 226)"></circle><circle class="wg-volcano-dot" r="2" cx="530.2739194204289" cy="200" fill="rgb(218, 218, 235)"></circle><circle class="wg-volcano-dot" r="2" cx="470.94427006656775" cy="200" fill="rgb(212, 212, 232)"></circle><circle class="wg-volcano-dot" r="2.584962500721156" cx="451.37636930703854" cy="200" fill="rgb(206, 207, 229)"></circle><circle class="wg-volcano-dot" r="2.584962500721156" cx="451.37636930703854" cy="200" fill="rgb(206, 207, 229)"></circle><circle class="wg-volcano-dot" r="2.584962500721156" cx="446.07103659374116" cy="200" fill="rgb(206, 207, 229)"></circle><circle class="wg-volcano-dot" r="2.584962500721156" cx="446.07103659374116" cy="200" fill="rgb(206, 207, 229)"></circle><circle class="wg-volcano-dot" r="3.321928094887362" cx="430.8349522387711" cy="200" fill="rgb(195, 195, 223)"></circle><circle class="wg-volcano-dot" r="3" cx="434.55278293878445" cy="200" fill="rgb(201, 201, 226)"></circle><circle class="wg-volcano-dot" r="2" cx="508.79754124762394" cy="200" fill="rgb(218, 218, 235)"></circle><circle class="wg-volcano-dot" r="2" cx="508.79754124762394" cy="200" fill="rgb(218, 218, 235)"></circle><circle class="wg-volcano-dot" r="2" cx="508.79754124762394" cy="200" fill="rgb(218, 218, 235)"></circle><circle class="wg-volcano-dot" r="2" cx="508.79754124762394" cy="200" fill="rgb(218, 218, 235)"></circle><circle class="wg-volcano-dot" r="2.584962500721156" cx="440.88231409290296" cy="200" fill="rgb(206, 207, 229)"></circle><circle class="wg-volcano-dot" r="2.584962500721156" cx="440.88231409290296" cy="200" fill="rgb(206, 207, 229)"></circle><circle class="wg-volcano-dot" r="2.584962500721156" cx="438.3301014481914" cy="200" fill="rgb(206, 207, 229)"></circle><circle class="wg-volcano-dot" r="2.584962500721156" cx="438.3301014481914" cy="200" fill="rgb(206, 207, 229)"></circle><circle class="wg-volcano-dot" r="2" cx="498.750179393491" cy="200" fill="rgb(218, 218, 235)"></circle><circle class="wg-volcano-dot" r="3" cx="428.99776498769364" cy="200" fill="rgb(201, 201, 226)"></circle><circle class="wg-volcano-dot" r="2.584962500721156" cx="435.8051857186194" cy="200" fill="rgb(206, 207, 229)"></circle><circle class="wg-volcano-dot" r="2" cx="450.03881688865187" cy="200" fill="rgb(212, 212, 232)"></circle><circle class="wg-volcano-dot" r="3" cx="427.17476465229777" cy="200" fill="rgb(201, 201, 226)"></circle><circle class="wg-volcano-dot" r="3" cx="427.17476465229777" cy="200" fill="rgb(201, 201, 226)"></circle><circle class="wg-volcano-dot" r="2.584962500721156" cx="433.30698917535136" cy="200" fill="rgb(206, 207, 229)"></circle><circle class="wg-volcano-dot" r="2.584962500721156" cx="433.30698917535136" cy="200" fill="rgb(206, 207, 229)"></circle><circle class="wg-volcano-dot" r="2" cx="489.113030275635" cy="200" fill="rgb(218, 218, 235)"></circle><circle class="wg-volcano-dot" r="2" cx="489.113030275635" cy="200" fill="rgb(218, 218, 235)"></circle><circle class="wg-volcano-dot" r="2.584962500721156" cx="430.8349522387711" cy="200" fill="rgb(206, 207, 229)"></circle><circle class="wg-volcano-dot" r="3.321928094887362" cx="419.316698583816" cy="200" fill="rgb(195, 195, 223)"></circle><circle class="wg-volcano-dot" r="3.321928094887362" cx="419.316698583816" cy="200" fill="rgb(195, 195, 223)"></circle><circle class="wg-volcano-dot" r="3" cx="421.7887355203941" cy="200" fill="rgb(201, 201, 226)"></circle><circle class="wg-volcano-dot" r="2" cx="479.8539074520479" cy="200" fill="rgb(218, 218, 235)"></circle><circle class="wg-volcano-dot" r="2" cx="434.55278293878445" cy="200" fill="rgb(212, 212, 232)"></circle><circle class="wg-volcano-dot" r="3" cx="416.52285094326214" cy="200" fill="rgb(201, 201, 226)"></circle><circle class="wg-volcano-dot" r="3" cx="414.79333866341284" cy="200" fill="rgb(201, 201, 226)"></circle><circle class="wg-volcano-dot" r="2" cx="462.35869226570986" cy="200" fill="rgb(218, 218, 235)"></circle><circle class="wg-volcano-dot" r="2" cx="462.35869226570986" cy="200" fill="rgb(218, 218, 235)"></circle><circle class="wg-volcano-dot" r="3.321928094887362" cx="411.0324320814569" cy="200" fill="rgb(195, 195, 223)"></circle><circle class="wg-volcano-dot" r="2" cx="427.17476465229777" cy="200" fill="rgb(212, 212, 232)"></circle><circle class="wg-volcano-dot" r="2" cx="427.17476465229777" cy="200" fill="rgb(212, 212, 232)"></circle><circle class="wg-volcano-dot" r="2" cx="427.17476465229777" cy="200" fill="rgb(212, 212, 232)"></circle><circle class="wg-volcano-dot" r="2" cx="423.57045998011444" cy="200" fill="rgb(212, 212, 232)"></circle><circle class="wg-volcano-dot" r="3" cx="409.6795494659587" cy="200" fill="rgb(201, 201, 226)"></circle><circle class="wg-volcano-dot" r="2.584962500721156" cx="411.9386802973281" cy="200" fill="rgb(206, 207, 229)"></circle><circle class="wg-volcano-dot" r="2" cx="420.0203574365905" cy="200" fill="rgb(212, 212, 232)"></circle><circle class="wg-volcano-dot" r="3" cx="406.33087813800523" cy="200" fill="rgb(201, 201, 226)"></circle><circle class="wg-volcano-dot" r="2" cx="446.07103659374116" cy="200" fill="rgb(218, 218, 235)"></circle><circle class="wg-volcano-dot" r="2" cx="446.07103659374116" cy="200" fill="rgb(218, 218, 235)"></circle><circle class="wg-volcano-dot" r="2" cx="416.52285094326214" cy="200" fill="rgb(212, 212, 232)"></circle><circle class="wg-volcano-dot" r="2" cx="416.52285094326214" cy="200" fill="rgb(212, 212, 232)"></circle><circle class="wg-volcano-dot" r="2" cx="413.0764047659802" cy="200" fill="rgb(212, 212, 232)"></circle><circle class="wg-volcano-dot" r="3" cx="403.0290429118477" cy="200" fill="rgb(201, 201, 226)"></circle><circle class="wg-volcano-dot" r="2" cx="438.3301014481914" cy="200" fill="rgb(218, 218, 235)"></circle><circle class="wg-volcano-dot" r="2" cx="438.3301014481914" cy="200" fill="rgb(218, 218, 235)"></circle><circle class="wg-volcano-dot" r="2" cx="438.3301014481914" cy="200" fill="rgb(218, 218, 235)"></circle><circle class="wg-volcano-dot" r="2" cx="438.3301014481914" cy="200" fill="rgb(218, 218, 235)"></circle><circle class="wg-volcano-dot" r="3.321928094887362" cx="400.42042664237124" cy="200" fill="rgb(195, 195, 223)"></circle><circle class="wg-volcano-dot" r="2" cx="409.6795494659587" cy="200" fill="rgb(212, 212, 232)"></circle><circle class="wg-volcano-dot" r="2" cx="409.6795494659587" cy="200" fill="rgb(212, 212, 232)"></circle><circle class="wg-volcano-dot" r="2" cx="409.6795494659587" cy="200" fill="rgb(212, 212, 232)"></circle><circle class="wg-volcano-dot" r="2" cx="409.6795494659587" cy="200" fill="rgb(212, 212, 232)"></circle><circle class="wg-volcano-dot" r="2" cx="430.8349522387711" cy="200" fill="rgb(218, 218, 235)"></circle><circle class="wg-volcano-dot" r="2" cx="430.8349522387711" cy="200" fill="rgb(218, 218, 235)"></circle><circle class="wg-volcano-dot" r="2" cx="403.0290429118477" cy="200" fill="rgb(212, 212, 232)"></circle><circle class="wg-volcano-dot" r="2" cx="403.0290429118477" cy="200" fill="rgb(212, 212, 232)"></circle><circle class="wg-volcano-dot" r="3.321928094887362" cx="395.28810776629825" cy="200" fill="rgb(195, 195, 223)"></circle><circle class="wg-volcano-dot" r="2" cx="416.52285094326214" cy="200" fill="rgb(218, 218, 235)"></circle><circle class="wg-volcano-dot" r="2" cx="393.39189379399096" cy="200" fill="rgb(212, 212, 232)"></circle><circle class="wg-volcano-dot" r="2.584962500721156" cx="390.26499549345755" cy="200" fill="rgb(206, 207, 229)"></circle><circle class="wg-volcano-dot" r="3" cx="388.7169416163375" cy="200" fill="rgb(201, 201, 226)"></circle><circle class="wg-volcano-dot" r="3.584962500721156" cx="389.23183248636974" cy="200" fill="rgb(189, 189, 220)"></circle><circle class="wg-volcano-dot" r="2" cx="390.26499549345755" cy="200" fill="rgb(212, 212, 232)"></circle><circle class="wg-volcano-dot" r="3.807354922057604" cx="389.37915066296154" cy="200" fill="rgb(183, 183, 216)"></circle><circle class="wg-volcano-dot" r="2" cx="396.5607651358525" cy="200" fill="rgb(218, 218, 235)"></circle><circle class="wg-volcano-dot" r="2" cx="396.5607651358525" cy="200" fill="rgb(218, 218, 235)"></circle><circle class="wg-volcano-dot" r="3" cx="381.12537526433636" cy="200" fill="rgb(201, 201, 226)"></circle><circle class="wg-volcano-dot" r="2" cx="390.26499549345755" cy="200" fill="rgb(218, 218, 235)"></circle><circle class="wg-volcano-dot" r="2" cx="390.26499549345755" cy="200" fill="rgb(218, 218, 235)"></circle><circle class="wg-volcano-dot" r="2" cx="384.13277097040367" cy="200" fill="rgb(218, 218, 235)"></circle><circle class="wg-volcano-dot" r="3" cx="375.2231335849238" cy="200" fill="rgb(201, 201, 226)"></circle><circle class="wg-volcano-dot" r="2" cx="378.15580943902114" cy="200" fill="rgb(218, 218, 235)"></circle><circle class="wg-volcano-dot" r="2" cx="378.15580943902114" cy="200" fill="rgb(218, 218, 235)"></circle><circle class="wg-volcano-dot" r="2" cx="378.15580943902114" cy="200" fill="rgb(218, 218, 235)"></circle><circle class="wg-volcano-dot" r="3" cx="373.77034518277696" cy="200" fill="rgb(201, 201, 226)"></circle><circle class="wg-volcano-dot" r="2" cx="372.326442392176" cy="200" fill="rgb(218, 218, 235)"></circle><circle class="wg-volcano-dot" r="2" cx="372.326442392176" cy="200" fill="rgb(218, 218, 235)"></circle><circle class="wg-volcano-dot" r="2" cx="372.326442392176" cy="200" fill="rgb(218, 218, 235)"></circle><circle class="wg-volcano-dot" r="3" cx="369.4648634729109" cy="200" fill="rgb(201, 201, 226)"></circle><circle class="wg-volcano-dot" r="2.584962500721156" cx="366.6375557840652" cy="200" fill="rgb(206, 207, 229)"></circle><circle class="wg-volcano-dot" r="2" cx="363.84370814351115" cy="200" fill="rgb(212, 212, 232)"></circle><circle class="wg-volcano-dot" r="2" cx="366.6375557840652" cy="200" fill="rgb(218, 218, 235)"></circle><circle class="wg-volcano-dot" r="2" cx="366.6375557840652" cy="200" fill="rgb(218, 218, 235)"></circle><circle class="wg-volcano-dot" r="2" cx="361.08253783297374" cy="200" fill="rgb(218, 218, 235)"></circle><circle class="wg-volcano-dot" r="2" cx="358.35328928170696" cy="200" fill="rgb(212, 212, 232)"></circle><circle class="wg-volcano-dot" r="2.584962500721156" cx="361.08253783297374" cy="200" fill="rgb(206, 207, 229)"></circle><circle class="wg-volcano-dot" r="2" cx="355.6552328253957" cy="200" fill="rgb(218, 218, 235)"></circle><circle class="wg-volcano-dot" r="2" cx="355.6552328253957" cy="200" fill="rgb(218, 218, 235)"></circle><circle class="wg-volcano-dot" r="2.584962500721156" cx="359.2595374975773" cy="200" fill="rgb(206, 207, 229)"></circle><circle class="wg-volcano-dot" r="2.584962500721156" cx="357.4505066506507" cy="200" fill="rgb(206, 207, 229)"></circle><circle class="wg-volcano-dot" r="2" cx="350.3499001120974" cy="200" fill="rgb(218, 218, 235)"></circle><circle class="wg-volcano-dot" r="2.584962500721156" cx="353.87350836567504" cy="200" fill="rgb(206, 207, 229)"></circle><circle class="wg-volcano-dot" r="3" cx="358.35328928170696" cy="200" fill="rgb(201, 201, 226)"></circle><circle class="wg-volcano-dot" r="2" cx="345.16117761126026" cy="200" fill="rgb(218, 218, 235)"></circle><circle class="wg-volcano-dot" r="3.321928094887362" cx="361.08253783297374" cy="200" fill="rgb(195, 195, 223)"></circle><circle class="wg-volcano-dot" r="4" cx="368.75485580892865" cy="200" fill="rgb(177, 176, 213)"></circle><circle class="wg-volcano-dot" r="2" cx="340.08404923697617" cy="200" fill="rgb(218, 218, 235)"></circle><circle class="wg-volcano-dot" r="2" cx="340.08404923697617" cy="200" fill="rgb(218, 218, 235)"></circle><circle class="wg-volcano-dot" r="3" cx="355.6552328253957" cy="200" fill="rgb(201, 201, 226)"></circle><circle class="wg-volcano-dot" r="2.584962500721156" cx="350.3499001120974" cy="200" fill="rgb(206, 207, 229)"></circle><circle class="wg-volcano-dot" r="2" cx="335.1138157571277" cy="200" fill="rgb(218, 218, 235)"></circle><circle class="wg-volcano-dot" r="2" cx="335.1138157571277" cy="200" fill="rgb(218, 218, 235)"></circle><circle class="wg-volcano-dot" r="3" cx="352.98766353517897" cy="200" fill="rgb(201, 201, 226)"></circle><circle class="wg-volcano-dot" r="2.584962500721156" cx="346.8781115086926" cy="200" fill="rgb(206, 207, 229)"></circle><circle class="wg-volcano-dot" r="3" cx="349.0419888978832" cy="200" fill="rgb(201, 201, 226)"></circle><circle class="wg-volcano-dot" r="2" cx="325.47666663927106" cy="200" fill="rgb(218, 218, 235)"></circle><circle class="wg-volcano-dot" r="2" cx="325.47666663927106" cy="200" fill="rgb(218, 218, 235)"></circle><circle class="wg-volcano-dot" r="2" cx="325.47666663927106" cy="200" fill="rgb(218, 218, 235)"></circle><circle class="wg-volcano-dot" r="2.584962500721156" cx="340.08404923697617" cy="200" fill="rgb(206, 207, 229)"></circle><circle class="wg-volcano-dot" r="2" cx="320.8017144616178" cy="200" fill="rgb(218, 218, 235)"></circle><circle class="wg-volcano-dot" r="2" cx="327.8493234984717" cy="200" fill="rgb(212, 212, 232)"></circle><circle class="wg-volcano-dot" r="2.584962500721156" cx="336.7589608839515" cy="200" fill="rgb(206, 207, 229)"></circle><circle class="wg-volcano-dot" r="2" cx="311.72069603752055" cy="200" fill="rgb(218, 218, 235)"></circle><circle class="wg-volcano-dot" r="2.584962500721156" cx="333.48005580888054" cy="200" fill="rgb(206, 207, 229)"></circle><circle class="wg-volcano-dot" r="2" cx="307.30790643020373" cy="200" fill="rgb(218, 218, 235)"></circle><circle class="wg-volcano-dot" r="2" cx="302.9760900256454" cy="200" fill="rgb(218, 218, 235)"></circle><circle class="wg-volcano-dot" r="2" cx="318.4985023360631" cy="200" fill="rgb(212, 212, 232)"></circle><circle class="wg-volcano-dot" r="6" cx="381.12537526433636" cy="200" fill="rgb(63, 0, 125)"></circle><circle class="wg-volcano-dot" r="2" cx="313.95841298431503" cy="200" fill="rgb(212, 212, 232)"></circle><circle class="wg-volcano-dot" r="2" cx="294.5438590118138" cy="200" fill="rgb(218, 218, 235)"></circle><circle class="wg-volcano-dot" r="3" cx="332.66739624451424" cy="200" fill="rgb(201, 201, 226)"></circle><circle class="wg-volcano-dot" r="2.584962500721156" cx="323.90804046722053" cy="200" fill="rgb(206, 207, 229)"></circle><circle class="wg-volcano-dot" r="2" cx="305.13206272981995" cy="200" fill="rgb(212, 212, 232)"></circle><circle class="wg-volcano-dot" r="2" cx="282.43467295737753" cy="200" fill="rgb(218, 218, 235)"></circle><circle class="wg-volcano-dot" r="2" cx="278.5324788193901" cy="200" fill="rgb(218, 218, 235)"></circle><circle class="wg-volcano-dot" r="2" cx="274.69373781182816" cy="200" fill="rgb(218, 218, 235)"></circle><circle class="wg-volcano-dot" r="3" cx="320.8017144616178" cy="200" fill="rgb(201, 201, 226)"></circle><circle class="wg-volcano-dot" r="2.584962500721156" cx="310.2405822843013" cy="200" fill="rgb(206, 207, 229)"></circle><circle class="wg-volcano-dot" r="2" cx="267.1985886024079" cy="200" fill="rgb(218, 218, 235)"></circle><circle class="wg-volcano-dot" r="2" cx="267.1985886024079" cy="200" fill="rgb(218, 218, 235)"></circle><circle class="wg-volcano-dot" r="2" cx="292.48203481151006" cy="200" fill="rgb(212, 212, 232)"></circle><circle class="wg-volcano-dot" r="2" cx="263.5384010159333" cy="200" fill="rgb(218, 218, 235)"></circle><circle class="wg-volcano-dot" r="4.169925001442312" cx="342.3270815058014" cy="200" fill="rgb(172, 170, 209)"></circle><circle class="wg-volcano-dot" r="2" cx="256.38399380022685" cy="200" fill="rgb(218, 218, 235)"></circle><circle class="wg-volcano-dot" r="2" cx="284.4102273338351" cy="200" fill="rgb(212, 212, 232)"></circle><circle class="wg-volcano-dot" r="2.584962500721156" cx="298.72232862934516" cy="200" fill="rgb(206, 207, 229)"></circle><circle class="wg-volcano-dot" r="2" cx="278.5324788193901" cy="200" fill="rgb(212, 212, 232)"></circle><circle class="wg-volcano-dot" r="2" cx="246.04318582959513" cy="200" fill="rgb(218, 218, 235)"></circle><circle class="wg-volcano-dot" r="2" cx="274.69373781182816" cy="200" fill="rgb(212, 212, 232)"></circle><circle class="wg-volcano-dot" r="2" cx="239.39267927548408" cy="200" fill="rgb(218, 218, 235)"></circle><circle class="wg-volcano-dot" r="3.807354922057604" cx="325.47666663927106" cy="200" fill="rgb(183, 183, 216)"></circle><circle class="wg-volcano-dot" r="2" cx="270.9164193024216" cy="200" fill="rgb(212, 212, 232)"></circle><circle class="wg-volcano-dot" r="2" cx="236.13638805840498" cy="200" fill="rgb(218, 218, 235)"></circle><circle class="wg-volcano-dot" r="2" cx="229.75553015762733" cy="200" fill="rgb(218, 218, 235)"></circle><circle class="wg-volcano-dot" r="2" cx="265.36140135133" cy="200" fill="rgb(212, 212, 232)"></circle><circle class="wg-volcano-dot" r="2" cx="220.49640733403973" cy="200" fill="rgb(218, 218, 235)"></circle><circle class="wg-volcano-dot" r="2" cx="220.49640733403973" cy="200" fill="rgb(218, 218, 235)"></circle><circle class="wg-volcano-dot" r="2" cx="217.4890116279727" cy="200" fill="rgb(218, 218, 235)"></circle><circle class="wg-volcano-dot" r="2" cx="217.4890116279727" cy="200" fill="rgb(218, 218, 235)"></circle><circle class="wg-volcano-dot" r="2" cx="211.58676994856017" cy="200" fill="rgb(218, 218, 235)"></circle><circle class="wg-volcano-dot" r="2" cx="208.69007875581255" cy="200" fill="rgb(218, 218, 235)"></circle><circle class="wg-volcano-dot" r="2" cx="244.36291275533242" cy="200" fill="rgb(212, 212, 232)"></circle><circle class="wg-volcano-dot" r="2" cx="200.20734450714778" cy="200" fill="rgb(218, 218, 235)"></circle><circle class="wg-volcano-dot" r="2.584962500721156" cx="262.3308415015628" cy="200" fill="rgb(206, 207, 229)"></circle><circle class="wg-volcano-dot" r="2" cx="192.01886918903196" cy="200" fill="rgb(218, 218, 235)"></circle><circle class="wg-volcano-dot" r="3.321928094887362" cx="289.62540256262076" cy="200" fill="rgb(195, 195, 223)"></circle><circle class="wg-volcano-dot" r="2" cx="189.35129989881534" cy="200" fill="rgb(218, 218, 235)"></circle><circle class="wg-volcano-dot" r="2" cx="189.35129989881534" cy="200" fill="rgb(218, 218, 235)"></circle><circle class="wg-volcano-dot" r="2" cx="231.33464889041778" cy="200" fill="rgb(212, 212, 232)"></circle><circle class="wg-volcano-dot" r="2" cx="173.94948905734333" cy="200" fill="rgb(218, 218, 235)"></circle><circle class="wg-volcano-dot" r="2" cx="169.0310326081506" cy="200" fill="rgb(218, 218, 235)"></circle><circle class="wg-volcano-dot" r="2" cx="169.0310326081506" cy="200" fill="rgb(218, 218, 235)"></circle><circle class="wg-volcano-dot" r="2" cx="166.60970501991932" cy="200" fill="rgb(218, 218, 235)"></circle><circle class="wg-volcano-dot" r="2" cx="141.49569909345632" cy="200" fill="rgb(218, 218, 235)"></circle><circle class="wg-volcano-dot" r="2" cx="198.8227225301701" cy="200" fill="rgb(212, 212, 232)"></circle><circle class="wg-volcano-dot" r="2" cx="124.77527085239649" cy="200" fill="rgb(218, 218, 235)"></circle><circle class="wg-volcano-dot" r="2" cx="152.58118017932" cy="200" fill="rgb(212, 212, 232)"></circle><circle class="wg-volcano-dot" r="2" cx="66.1191665212637" cy="200" fill="rgb(218, 218, 235)"></circle><circle class="wg-volcano-dot" r="2" cx="5.394668971787004" cy="200" fill="rgb(218, 218, 235)"></circle></g><g class="x-axis" transform="translate(0,400)" fill="none" font-size="10" font-family="sans-serif" text-anchor="middle"><path class="domain" stroke="currentColor" d="M0.5,6V0.5H900.5V6"></path><g class="tick" opacity="1" transform="translate(0.5,0)"><line stroke="currentColor" y2="6"></line><text fill="currentColor" y="9" dy="0.71em">-2.5</text></g><g class="tick" opacity="1" transform="translate(82.31818181818183,0)"><line stroke="currentColor" y2="6"></line><text fill="currentColor" y="9" dy="0.71em">-2.0</text></g><g class="tick" opacity="1" transform="translate(164.13636363636365,0)"><line stroke="currentColor" y2="6"></line><text fill="currentColor" y="9" dy="0.71em">-1.5</text></g><g class="tick" opacity="1" transform="translate(245.95454545454544,0)"><line stroke="currentColor" y2="6"></line><text fill="currentColor" y="9" dy="0.71em">-1.0</text></g><g class="tick" opacity="1" transform="translate(327.7727272727273,0)"><line stroke="currentColor" y2="6"></line><text fill="currentColor" y="9" dy="0.71em">-0.5</text></g><g class="tick" opacity="1" transform="translate(409.59090909090907,0)"><line stroke="currentColor" y2="6"></line><text fill="currentColor" y="9" dy="0.71em">0.0</text></g><g class="tick" opacity="1" transform="translate(491.4090909090909,0)"><line stroke="currentColor" y2="6"></line><text fill="currentColor" y="9" dy="0.71em">0.5</text></g><g class="tick" opacity="1" transform="translate(573.2272727272727,0)"><line stroke="currentColor" y2="6"></line><text fill="currentColor" y="9" dy="0.71em">1.0</text></g><g class="tick" opacity="1" transform="translate(655.0454545454546,0)"><line stroke="currentColor" y2="6"></line><text fill="currentColor" y="9" dy="0.71em">1.5</text></g><g class="tick" opacity="1" transform="translate(736.8636363636364,0)"><line stroke="currentColor" y2="6"></line><text fill="currentColor" y="9" dy="0.71em">2.0</text></g><g class="tick" opacity="1" transform="translate(818.6818181818181,0)"><line stroke="currentColor" y2="6"></line><text fill="currentColor" y="9" dy="0.71em">2.5</text></g><g class="tick" opacity="1" transform="translate(900.5,0)"><line stroke="currentColor" y2="6"></line><text fill="currentColor" y="9" dy="0.71em">3.0</text></g><text class="x-label" x="900" y="-6" fill="#000" style="text-anchor: end;">log2 of enrichment ratio</text></g><g class="y-axis" transform="translate(409.09090909090907,0)" fill="none" font-size="10" font-family="sans-serif" text-anchor="end"><path class="domain" stroke="currentColor" d="M-6,400.5H0.5V0.5H-6"></path><text class="y-label" transform="rotate(-90)" y="6" dy=".71em" fill="#000" style="text-anchor: end;">-Log10 of FDR</text></g></g><g class="legend"><defs><linearGradient id="gradient" x1="0%" y1="100%" x2="100%" y2="100%" spreadMethod="pad"><stop offset="0%" stop-color="#dadaeb" stop-opacity="1"></stop><stop offset="16.67%" stop-color="#bcbddc" stop-opacity="1"></stop><stop offset="33.33%" stop-color="#9e9ac8" stop-opacity="1"></stop><stop offset="50%" stop-color="#807dba" stop-opacity="1"></stop><stop offset="66.67%" stop-color="#6a51a3" stop-opacity="1"></stop><stop offset="83.33%" stop-color="#54278f" stop-opacity="1"></stop><stop offset="100%" stop-color="#3f007d" stop-opacity="1"></stop></linearGradient></defs><rect width="100" height="20" transform="translate(10,0)" style="fill: url(&quot;#gradient&quot;);"></rect><g class="y-axis" transform="translate(10,20)" fill="none" font-size="10" font-family="sans-serif" text-anchor="middle"><path class="domain" stroke="currentColor" d="M0.5,6V0.5H100.5V6"></path><g class="tick" opacity="1" transform="translate(13.403225806451612,0)"><line stroke="currentColor" y2="6"></line><text fill="currentColor" y="9" dy="0.71em">5</text></g><g class="tick" opacity="1" transform="translate(29.53225806451613,0)"><line stroke="currentColor" y2="6"></line><text fill="currentColor" y="9" dy="0.71em">10</text></g><g class="tick" opacity="1" transform="translate(45.66129032258064,0)"><line stroke="currentColor" y2="6"></line><text fill="currentColor" y="9" dy="0.71em">15</text></g><g class="tick" opacity="1" transform="translate(61.79032258064516,0)"><line stroke="currentColor" y2="6"></line><text fill="currentColor" y="9" dy="0.71em">20</text></g><g class="tick" opacity="1" transform="translate(77.91935483870968,0)"><line stroke="currentColor" y2="6"></line><text fill="currentColor" y="9" dy="0.71em">25</text></g><g class="tick" opacity="1" transform="translate(94.04838709677419,0)"><line stroke="currentColor" y2="6"></line><text fill="currentColor" y="9" dy="0.71em">30</text></g></g></g></svg>