<svg xmlns="http://www.w3.org/2000/svg" version="1.1" viewBox="0 0 960 500" width="1920" height="1000"><g class="canvas" transform="translate(30,60)"><g class="content"><text class="dot-label has-pointer" text-anchor="middle" font-size="0.7rem" fill="#000" x="790.3308850841737" y="223.1358110344996"><tspan dy="0" x="790.3308850841737">Pantothenate and CoA</tspan><tspan dy="14" x="790.3308850841737">biosynthesis</tspan></text><text class="dot-label has-pointer" text-anchor="middle" font-size="0.7rem" fill="#000" x="645.448588225893" y="184.27271619145102"><tspan dy="0" x="645.448588225893">RNA degradation</tspan></text><text class="dot-label has-pointer" text-anchor="middle" font-size="0.7rem" fill="#000" x="563.1260969903562" y="232.87213775048008"><tspan dy="0" x="563.1260969903562">TNF signaling pathway</tspan></text><text class="dot-label has-pointer" text-anchor="middle" font-size="0.7rem" fill="#000" x="828.4766791834812" y="179.14739963586442"><tspan dy="0" x="828.4766791834812">Riboflavin metabolism</tspan></text><text class="dot-label has-pointer" text-anchor="middle" font-size="0.7rem" fill="#000" x="628.232006005786" y="223.5535389978877"><tspan dy="0" x="628.232006005786">Viral myocarditis</tspan></text><text class="dot-label has-pointer" text-anchor="middle" font-size="0.7rem" fill="#000" x="755.9908487876218" y="194.30515985543482"><tspan dy="0" x="755.9908487876218">Ubiquinone and other</tspan><tspan dy="14" x="755.9908487876218">terpenoid-quinone</tspan><tspan dy="14" x="755.9908487876218">biosynthesis</tspan></text><text class="dot-label has-pointer" text-anchor="middle" font-size="0.7rem" fill="#000" x="586.9913031003266" y="157.2425285958073"><tspan dy="0" x="586.9913031003266">Mitophagy</tspan></text><text class="dot-label has-pointer" text-anchor="middle" font-size="0.7rem" fill="#000" x="578.1811659560782" y="249.54732691484762"><tspan dy="0" x="578.1811659560782">Fc epsilon RI signaling</tspan><tspan dy="14" x="578.1811659560782">pathway</tspan></text><text class="dot-label has-pointer" text-anchor="middle" font-size="0.7rem" fill="#000" x="531.4263175628904" y="238.18859770529892"><tspan dy="0" x="531.4263175628904">Inositol phosphate</tspan><tspan dy="14" x="531.4263175628904">metabolism</tspan></text><text class="dot-label has-pointer" text-anchor="middle" font-size="0.7rem" fill="#000" x="442.47247598687636" y="153.53173316394737"><tspan dy="0" x="442.47247598687636">Alzheimer disease</tspan></text><circle class="wg-volcano-dot has-pointer" r="2" cx="816.7884833699336" cy="200" fill="rgb(192, 193, 222)"></circle><circle class="wg-volcano-dot has-pointer" r="2.584962500721156" cx="615.6714088733555" cy="200" fill="rgb(167, 164, 206)"></circle><circle class="wg-volcano-dot has-pointer" r="2.584962500721156" cx="547.0003711508677" cy="200" fill="rgb(167, 164, 206)"></circle><circle class="wg-volcano-dot has-pointer" r="2" cx="851.1169083082759" cy="200" fill="rgb(218, 218, 235)"></circle><circle class="wg-volcano-dot has-pointer" r="2" cx="597.3321371162348" cy="200" fill="rgb(192, 193, 222)"></circle><circle class="wg-volcano-dot has-pointer" r="2" cx="787.5032995738815" cy="200" fill="rgb(218, 218, 235)"></circle><circle class="wg-volcano-dot has-pointer" r="2" cx="571.0967495812592" cy="200" fill="rgb(192, 193, 222)"></circle><circle class="wg-volcano-dot has-pointer" r="2" cx="565.0430203987381" cy="200" fill="rgb(192, 193, 222)"></circle><circle class="wg-volcano-dot has-pointer" r="2" cx="545.1925961442678" cy="200" fill="rgb(192, 193, 222)"></circle><circle class="wg-volcano-dot has-pointer" r="2.584962500721156" cx="469.6709464702569" cy="200" fill="rgb(167, 164, 206)"></circle><circle class="wg-volcano-dot" r="2" cx="532.1318816376004" cy="200" fill="rgb(192, 193, 222)"></circle><circle class="wg-volcano-dot" r="2" cx="524.6866307457718" cy="200" fill="rgb(192, 193, 222)"></circle><circle class="wg-volcano-dot" r="2" cx="519.872957461986" cy="200" fill="rgb(192, 193, 222)"></circle><circle class="wg-volcano-dot" r="2" cx="517.5089325353637" cy="200" fill="rgb(192, 193, 222)"></circle><circle class="wg-volcano-dot" r="2.584962500721156" cx="446.41707361138555" cy="200" fill="rgb(167, 164, 206)"></circle><circle class="wg-volcano-dot" r="2" cx="501.70063746961245" cy="200" fill="rgb(192, 193, 222)"></circle><circle class="wg-volcano-dot" r="3" cx="412.2042158008784" cy="200" fill="rgb(141, 137, 192)"></circle><circle class="wg-volcano-dot" r="2" cx="489.08016066155477" cy="200" fill="rgb(192, 193, 222)"></circle><circle class="wg-volcano-dot" r="2" cx="485.0445128010064" cy="200" fill="rgb(192, 193, 222)"></circle><circle class="wg-volcano-dot" r="3.321928094887362" cx="381.8875998573856" cy="200" fill="rgb(119, 106, 176)"></circle><circle class="wg-volcano-dot" r="2" cx="600.867765254146" cy="200" fill="rgb(218, 218, 235)"></circle><circle class="wg-volcano-dot" r="2" cx="587.0859027624812" cy="200" fill="rgb(218, 218, 235)"></circle><circle class="wg-volcano-dot" r="2" cx="574.193831385199" cy="200" fill="rgb(218, 218, 235)"></circle><circle class="wg-volcano-dot" r="2" cx="445.3225077226455" cy="200" fill="rgb(192, 193, 222)"></circle><circle class="wg-volcano-dot" r="2" cx="438.8781496698261" cy="200" fill="rgb(192, 193, 222)"></circle><circle class="wg-volcano-dot" r="2" cx="438.8781496698261" cy="200" fill="rgb(192, 193, 222)"></circle><circle class="wg-volcano-dot" r="2" cx="550.6657542624173" cy="200" fill="rgb(218, 218, 235)"></circle><circle class="wg-volcano-dot" r="2" cx="434.1777498650564" cy="200" fill="rgb(192, 193, 222)"></circle><circle class="wg-volcano-dot" r="2" cx="434.1777498650564" cy="200" fill="rgb(192, 193, 222)"></circle><circle class="wg-volcano-dot" r="2" cx="428.0778018542653" cy="200" fill="rgb(192, 193, 222)"></circle><circle class="wg-volcano-dot" r="2" cx="423.6220533659215" cy="200" fill="rgb(192, 193, 222)"></circle><circle class="wg-volcano-dot" r="2" cx="412.2042158008784" cy="200" fill="rgb(192, 193, 222)"></circle><circle class="wg-volcano-dot" r="2" cx="501.70063746961245" cy="200" fill="rgb(218, 218, 235)"></circle><circle class="wg-volcano-dot" r="2" cx="501.70063746961245" cy="200" fill="rgb(218, 218, 235)"></circle><circle class="wg-volcano-dot" r="2" cx="501.70063746961245" cy="200" fill="rgb(218, 218, 235)"></circle><circle class="wg-volcano-dot" r="2" cx="493.19902359303904" cy="200" fill="rgb(218, 218, 235)"></circle><circle class="wg-volcano-dot" r="2" cx="485.0445128010064" cy="200" fill="rgb(218, 218, 235)"></circle><circle class="wg-volcano-dot" r="2" cx="391.15763363156424" cy="200" fill="rgb(192, 193, 222)"></circle><circle class="wg-volcano-dot" r="2" cx="370.98690906601473" cy="200" fill="rgb(192, 193, 222)"></circle><circle class="wg-volcano-dot" r="2" cx="366.52286240444784" cy="200" fill="rgb(192, 193, 222)"></circle><circle class="wg-volcano-dot" r="2" cx="432.6352111197202" cy="200" fill="rgb(218, 218, 235)"></circle><circle class="wg-volcano-dot" r="2" cx="429.58541485864356" cy="200" fill="rgb(218, 218, 235)"></circle><circle class="wg-volcano-dot" r="2" cx="420.7058296774527" cy="200" fill="rgb(218, 218, 235)"></circle><circle class="wg-volcano-dot" r="2" cx="414.99807637685853" cy="200" fill="rgb(218, 218, 235)"></circle><circle class="wg-volcano-dot" r="2" cx="414.99807637685853" cy="200" fill="rgb(218, 218, 235)"></circle><circle class="wg-volcano-dot" r="2" cx="412.2042158008784" cy="200" fill="rgb(218, 218, 235)"></circle><circle class="wg-volcano-dot" r="2" cx="393.67034317606135" cy="200" fill="rgb(218, 218, 235)"></circle><circle class="wg-volcano-dot" r="2" cx="336.83675970835054" cy="200" fill="rgb(192, 193, 222)"></circle><circle class="wg-volcano-dot" r="2" cx="381.41141900044744" cy="200" fill="rgb(218, 218, 235)"></circle><circle class="wg-volcano-dot" r="2" cx="374.4016550369135" cy="200" fill="rgb(218, 218, 235)"></circle><circle class="wg-volcano-dot" r="2" cx="374.4016550369135" cy="200" fill="rgb(218, 218, 235)"></circle><circle class="wg-volcano-dot" r="2" cx="372.11868418926605" cy="200" fill="rgb(218, 218, 235)"></circle><circle class="wg-volcano-dot" r="2" cx="369.86151017446645" cy="200" fill="rgb(218, 218, 235)"></circle><circle class="wg-volcano-dot" r="2" cx="363.2390990080746" cy="200" fill="rgb(218, 218, 235)"></circle><circle class="wg-volcano-dot" r="2" cx="361.07953446254845" cy="200" fill="rgb(218, 218, 235)"></circle><circle class="wg-volcano-dot" r="2" cx="361.07953446254845" cy="200" fill="rgb(218, 218, 235)"></circle><circle class="wg-volcano-dot" r="2" cx="361.07953446254845" cy="200" fill="rgb(218, 218, 235)"></circle><circle class="wg-volcano-dot" r="2" cx="358.9430673067576" cy="200" fill="rgb(218, 218, 235)"></circle><circle class="wg-volcano-dot" r="2" cx="354.7374851314999" cy="200" fill="rgb(218, 218, 235)"></circle><circle class="wg-volcano-dot" r="2" cx="354.7374851314999" cy="200" fill="rgb(218, 218, 235)"></circle><circle class="wg-volcano-dot" r="2" cx="348.5906070664844" cy="200" fill="rgb(218, 218, 235)"></circle><circle class="wg-volcano-dot" r="2" cx="338.7483319502792" cy="200" fill="rgb(218, 218, 235)"></circle><circle class="wg-volcano-dot" r="2" cx="334.9433069072178" cy="200" fill="rgb(218, 218, 235)"></circle><circle class="wg-volcano-dot" r="2" cx="323.94468833106987" cy="200" fill="rgb(218, 218, 235)"></circle><circle class="wg-volcano-dot" r="2" cx="316.9349243675348" cy="200" fill="rgb(218, 218, 235)"></circle><circle class="wg-volcano-dot" r="2" cx="315.22025482749706" cy="200" fill="rgb(218, 218, 235)"></circle><circle class="wg-volcano-dot" r="2" cx="313.5201783966359" cy="200" fill="rgb(218, 218, 235)"></circle><circle class="wg-volcano-dot" r="2" cx="287.37596580043606" cy="200" fill="rgb(192, 193, 222)"></circle><circle class="wg-volcano-dot" r="2" cx="311.83444877333017" cy="200" fill="rgb(218, 218, 235)"></circle><circle class="wg-volcano-dot" r="2" cx="310.1628258394047" cy="200" fill="rgb(218, 218, 235)"></circle><circle class="wg-volcano-dot" r="2" cx="306.86096926110787" cy="200" fill="rgb(218, 218, 235)"></circle><circle class="wg-volcano-dot" r="2" cx="300.4166112082867" cy="200" fill="rgb(218, 218, 235)"></circle><circle class="wg-volcano-dot" r="2" cx="298.8374901398213" cy="200" fill="rgb(218, 218, 235)"></circle><circle class="wg-volcano-dot" r="2" cx="294.1736726581818" cy="200" fill="rgb(218, 218, 235)"></circle><circle class="wg-volcano-dot" r="2" cx="294.1736726581818" cy="200" fill="rgb(218, 218, 235)"></circle><circle class="wg-volcano-dot" r="2" cx="283.69708143681925" cy="200" fill="rgb(218, 218, 235)"></circle><circle class="wg-volcano-dot" r="2" cx="282.2442912159132" cy="200" fill="rgb(218, 218, 235)"></circle><circle class="wg-volcano-dot" r="2" cx="282.2442912159132" cy="200" fill="rgb(218, 218, 235)"></circle><circle class="wg-volcano-dot" r="2" cx="277.94825951459615" cy="200" fill="rgb(218, 218, 235)"></circle><circle class="wg-volcano-dot" r="2" cx="276.5365379153201" cy="200" fill="rgb(218, 218, 235)"></circle><circle class="wg-volcano-dot" r="2" cx="275.13472321588364" cy="200" fill="rgb(218, 218, 235)"></circle><circle class="wg-volcano-dot" r="2" cx="265.5881665473077" cy="200" fill="rgb(218, 218, 235)"></circle><circle class="wg-volcano-dot" r="2" cx="264.26086747864974" cy="200" fill="rgb(218, 218, 235)"></circle><circle class="wg-volcano-dot" r="2" cx="255.20880471452313" cy="200" fill="rgb(218, 218, 235)"></circle><circle class="wg-volcano-dot" r="2" cx="253.9484991150576" cy="200" fill="rgb(218, 218, 235)"></circle><circle class="wg-volcano-dot" r="2" cx="248.98531772243433" cy="200" fill="rgb(218, 218, 235)"></circle><circle class="wg-volcano-dot" r="4" cx="255.20880471452313" cy="200" fill="rgb(63, 0, 125)"></circle><circle class="wg-volcano-dot" r="2" cx="245.34221781408633" cy="200" fill="rgb(218, 218, 235)"></circle><circle class="wg-volcano-dot" r="2" cx="242.9498805389092" cy="200" fill="rgb(218, 218, 235)"></circle><circle class="wg-volcano-dot" r="2" cx="242.9498805389092" cy="200" fill="rgb(218, 218, 235)"></circle><circle class="wg-volcano-dot" r="2" cx="242.9498805389092" cy="200" fill="rgb(218, 218, 235)"></circle><circle class="wg-volcano-dot" r="2" cx="239.41425240099787" cy="200" fill="rgb(218, 218, 235)"></circle><circle class="wg-volcano-dot" r="2" cx="234.7953697468766" cy="200" fill="rgb(192, 193, 222)"></circle><circle class="wg-volcano-dot" r="2" cx="233.65714572772708" cy="200" fill="rgb(218, 218, 235)"></circle><circle class="wg-volcano-dot" r="2" cx="226.96072735768732" cy="200" fill="rgb(218, 218, 235)"></circle><circle class="wg-volcano-dot" r="2" cx="212.15708373847795" cy="200" fill="rgb(218, 218, 235)"></circle><circle class="wg-volcano-dot" r="2" cx="210.12906860494536" cy="200" fill="rgb(218, 218, 235)"></circle><circle class="wg-volcano-dot" r="2" cx="204.16570711222275" cy="200" fill="rgb(218, 218, 235)"></circle><circle class="wg-volcano-dot" r="2" cx="200.28679348874013" cy="200" fill="rgb(218, 218, 235)"></circle><circle class="wg-volcano-dot" r="2" cx="193.67482144204297" cy="200" fill="rgb(218, 218, 235)"></circle><circle class="wg-volcano-dot" r="2" cx="181.07330687946833" cy="200" fill="rgb(218, 218, 235)"></circle><circle class="wg-volcano-dot" r="2" cx="170.87069252258883" cy="200" fill="rgb(218, 218, 235)"></circle><circle class="wg-volcano-dot" r="2" cx="163.54677658583321" cy="200" fill="rgb(218, 218, 235)"></circle><circle class="wg-volcano-dot" r="2" cx="133.21109159789816" cy="200" fill="rgb(218, 218, 235)"></circle><circle class="wg-volcano-dot" r="2" cx="106.27990363687033" cy="200" fill="rgb(218, 218, 235)"></circle><circle class="wg-volcano-dot" r="2" cx="18.793134480440493" cy="200" fill="rgb(218, 218, 235)"></circle></g><g class="x-axis" transform="translate(0,400)" fill="none" font-size="10" font-family="sans-serif" text-anchor="middle"><path class="domain" stroke="currentColor" d="M0.5,6V0.5H900.5V6"></path><g class="tick" opacity="1" transform="translate(0.5,0)"><line stroke="currentColor" y2="6"></line><text fill="currentColor" y="9" dy="0.71em">-2.0</text></g><g class="tick" opacity="1" transform="translate(69.73076923076924,0)"><line stroke="currentColor" y2="6"></line><text fill="currentColor" y="9" dy="0.71em">-1.5</text></g><g class="tick" opacity="1" transform="translate(138.96153846153848,0)"><line stroke="currentColor" y2="6"></line><text fill="currentColor" y="9" dy="0.71em">-1.0</text></g><g class="tick" opacity="1" transform="translate(208.1923076923077,0)"><line stroke="currentColor" y2="6"></line><text fill="currentColor" y="9" dy="0.71em">-0.5</text></g><g class="tick" opacity="1" transform="translate(277.42307692307696,0)"><line stroke="currentColor" y2="6"></line><text fill="currentColor" y="9" dy="0.71em">0.0</text></g><g class="tick" opacity="1" transform="translate(346.6538461538462,0)"><line stroke="currentColor" y2="6"></line><text fill="currentColor" y="9" dy="0.71em">0.5</text></g><g class="tick" opacity="1" transform="translate(415.8846153846154,0)"><line stroke="currentColor" y2="6"></line><text fill="currentColor" y="9" dy="0.71em">1.0</text></g><g class="tick" opacity="1" transform="translate(485.1153846153846,0)"><line stroke="currentColor" y2="6"></line><text fill="currentColor" y="9" dy="0.71em">1.5</text></g><g class="tick" opacity="1" transform="translate(554.3461538461539,0)"><line stroke="currentColor" y2="6"></line><text fill="currentColor" y="9" dy="0.71em">2.0</text></g><g class="tick" opacity="1" transform="translate(623.5769230769231,0)"><line stroke="currentColor" y2="6"></line><text fill="currentColor" y="9" dy="0.71em">2.5</text></g><g class="tick" opacity="1" transform="translate(692.8076923076924,0)"><line stroke="currentColor" y2="6"></line><text fill="currentColor" y="9" dy="0.71em">3.0</text></g><g class="tick" opacity="1" transform="translate(762.0384615384615,0)"><line stroke="currentColor" y2="6"></line><text fill="currentColor" y="9" dy="0.71em">3.5</text></g><g class="tick" opacity="1" transform="translate(831.2692307692308,0)"><line stroke="currentColor" y2="6"></line><text fill="currentColor" y="9" dy="0.71em">4.0</text></g><g class="tick" opacity="1" transform="translate(900.5,0)"><line stroke="currentColor" y2="6"></line><text fill="currentColor" y="9" dy="0.71em">4.5</text></g><text class="x-label" x="900" y="-6" fill="#000" style="text-anchor: end;">log2 of enrichment ratio</text></g><g class="y-axis" transform="translate(276.92307692307696,0)" fill="none" font-size="10" font-family="sans-serif" text-anchor="end"><path class="domain" stroke="currentColor" d="M-6,400.5H0.5V0.5H-6"></path><text class="y-label" transform="rotate(-90)" y="6" dy=".71em" fill="#000" style="text-anchor: end;">-Log10 of FDR</text></g></g><g class="legend"><defs><linearGradient id="gradient" x1="0%" y1="100%" x2="100%" y2="100%" spreadMethod="pad"><stop offset="0%" stop-color="#dadaeb" stop-opacity="1"></stop><stop offset="16.67%" stop-color="#bcbddc" stop-opacity="1"></stop><stop offset="33.33%" stop-color="#9e9ac8" stop-opacity="1"></stop><stop offset="50%" stop-color="#807dba" stop-opacity="1"></stop><stop offset="66.67%" stop-color="#6a51a3" stop-opacity="1"></stop><stop offset="83.33%" stop-color="#54278f" stop-opacity="1"></stop><stop offset="100%" stop-color="#3f007d" stop-opacity="1"></stop></linearGradient></defs><rect width="100" height="20" transform="translate(10,0)" style="fill: url(&quot;#gradient&quot;);"></rect><g class="y-axis" transform="translate(10,20)" fill="none" font-size="10" font-family="sans-serif" text-anchor="middle"><path class="domain" stroke="currentColor" d="M0.5,6V0.5H100.5V6"></path><g class="tick" opacity="1" transform="translate(0.5,0)"><line stroke="currentColor" y2="6"></line><text fill="currentColor" y="9" dy="0.71em">1</text></g><g class="tick" opacity="1" transform="translate(14.785714285714285,0)"><line stroke="currentColor" y2="6"></line><text fill="currentColor" y="9" dy="0.71em">2</text></g><g class="tick" opacity="1" transform="translate(29.07142857142857,0)"><line stroke="currentColor" y2="6"></line><text fill="currentColor" y="9" dy="0.71em">3</text></g><g class="tick" opacity="1" transform="translate(43.357142857142854,0)"><line stroke="currentColor" y2="6"></line><text fill="currentColor" y="9" dy="0.71em">4</text></g><g class="tick" opacity="1" transform="translate(57.64285714285714,0)"><line stroke="currentColor" y2="6"></line><text fill="currentColor" y="9" dy="0.71em">5</text></g><g class="tick" opacity="1" transform="translate(71.92857142857143,0)"><line stroke="currentColor" y2="6"></line><text fill="currentColor" y="9" dy="0.71em">6</text></g><g class="tick" opacity="1" transform="translate(86.21428571428571,0)"><line stroke="currentColor" y2="6"></line><text fill="currentColor" y="9" dy="0.71em">7</text></g><g class="tick" opacity="1" transform="translate(100.5,0)"><line stroke="currentColor" y2="6"></line><text fill="currentColor" y="9" dy="0.71em">8</text></g></g></g></svg>