<svg xmlns="http://www.w3.org/2000/svg" version="1.1" viewBox="0 0 960 500" width="1920" height="1000"><g class="canvas" transform="translate(30,60)"><g class="content"><text class="dot-label has-pointer" text-anchor="middle" font-size="0.7rem" fill="#000" x="692.8234019574795" y="47.34947601954889"><tspan dy="0" x="692.8234019574795">Rap1 signaling pathway</tspan></text><text class="dot-label has-pointer" text-anchor="middle" font-size="0.7rem" fill="#000" x="766.1271021550837" y="427.735512222582"><tspan dy="0" x="766.1271021550837">Synaptic vesicle cycle</tspan></text><text class="dot-label has-pointer" text-anchor="middle" font-size="0.7rem" fill="#000" x="656.6939497762133" y="391.76230460539864"><tspan dy="0" x="656.6939497762133">Lysosome</tspan></text><text class="dot-label has-pointer" text-anchor="middle" font-size="0.7rem" fill="#000" x="788.2058683647552" y="355.28548187888754"><tspan dy="0" x="788.2058683647552">Vibrio cholerae</tspan><tspan dy="14" x="788.2058683647552">infection</tspan></text><text class="dot-label has-pointer" text-anchor="middle" font-size="0.7rem" fill="#000" x="710.4971902200358" y="430.6076417688773"><tspan dy="0" x="710.4971902200358">VEGF signaling pathway</tspan></text><text class="dot-label has-pointer" text-anchor="middle" font-size="0.7rem" fill="#000" x="749.0023095875938" y="348.84675441546"><tspan dy="0" x="749.0023095875938">Sphingolipid</tspan><tspan dy="14" x="749.0023095875938">metabolism</tspan></text><text class="dot-label has-pointer" text-anchor="middle" font-size="0.7rem" fill="#000" x="684.5462614623765" y="357.89359632743515"><tspan dy="0" x="684.5462614623765">Pertussis</tspan></text><text class="dot-label has-pointer" text-anchor="middle" font-size="0.7rem" fill="#000" x="709.9535243909668" y="350.47494708857073"><tspan dy="0" x="709.9535243909668">Retinol metabolism</tspan></text><text class="dot-label has-pointer" text-anchor="middle" font-size="0.7rem" fill="#000" x="620.618766035699" y="397.55160398543575"><tspan dy="0" x="620.618766035699">Phospholipase D</tspan><tspan dy="14" x="620.618766035699">signaling pathway</tspan></text><text class="dot-label has-pointer" text-anchor="middle" font-size="0.7rem" fill="#000" x="654.5447950124791" y="366.72194589814154"><tspan dy="0" x="654.5447950124791">Taste transduction</tspan></text><circle class="wg-volcano-dot has-pointer" r="5.247927513443585" cx="722.7908271477773" cy="49.54839768813872" fill="rgb(162, 159, 203)"></circle><circle class="wg-volcano-dot has-pointer" r="3.807354922057604" cx="772.7689863835324" cy="400" fill="rgb(199, 200, 225)"></circle><circle class="wg-volcano-dot has-pointer" r="4.459431618637297" cx="714.3654068761941" cy="400" fill="rgb(187, 187, 219)"></circle><circle class="wg-volcano-dot has-pointer" r="3.584962500721156" cx="788.5995722531578" cy="400" fill="rgb(202, 203, 227)"></circle><circle class="wg-volcano-dot has-pointer" r="3.584962500721156" cx="750.0571072896462" cy="400" fill="rgb(202, 203, 227)"></circle><circle class="wg-volcano-dot has-pointer" r="3.321928094887362" cx="762.906341272264" cy="400" fill="rgb(206, 206, 229)"></circle><circle class="wg-volcano-dot has-pointer" r="3.807354922057604" cx="719.897369833324" cy="400" fill="rgb(199, 200, 225)"></circle><circle class="wg-volcano-dot has-pointer" r="3.584962500721156" cx="732.7383505429708" cy="400" fill="rgb(202, 203, 227)"></circle><circle class="wg-volcano-dot has-pointer" r="4.459431618637297" cx="673.1212870174041" cy="400" fill="rgb(187, 187, 219)"></circle><circle class="wg-volcano-dot has-pointer" r="3.807354922057604" cx="703.3513217339372" cy="400" fill="rgb(199, 200, 225)"></circle><circle class="wg-volcano-dot" r="4.169925001442312" cx="675.3503574194546" cy="400" fill="rgb(193, 193, 222)"></circle><circle class="wg-volcano-dot" r="4.584962500721156" cx="653.876550312432" cy="400" fill="rgb(184, 184, 217)"></circle><circle class="wg-volcano-dot" r="2.584962500721156" cx="810.2525343223467" cy="400" fill="rgb(212, 212, 232)"></circle><circle class="wg-volcano-dot" r="3.584962500721156" cx="712.5976321302103" cy="400" fill="rgb(202, 203, 227)"></circle><circle class="wg-volcano-dot" r="4.459431618637297" cx="658.985274559" cy="400" fill="rgb(187, 187, 219)"></circle><circle class="wg-volcano-dot" r="3.584962500721156" cx="708.7503749875474" cy="400" fill="rgb(202, 203, 227)"></circle><circle class="wg-volcano-dot" r="4.906890595608519" cx="631.3840616348842" cy="400" fill="rgb(175, 173, 211)"></circle><circle class="wg-volcano-dot" r="5.169925001442312" cx="619.2004362828014" cy="400" fill="rgb(165, 163, 205)"></circle><circle class="wg-volcano-dot" r="3.807354922057604" cx="678.892304679218" cy="400" fill="rgb(199, 200, 225)"></circle><circle class="wg-volcano-dot" r="2.584962500721156" cx="778.4145371472117" cy="400" fill="rgb(212, 212, 232)"></circle><circle class="wg-volcano-dot" r="3" cx="734.841075451546" cy="400" fill="rgb(209, 209, 230)"></circle><circle class="wg-volcano-dot" r="3" cx="734.841075451546" cy="400" fill="rgb(209, 209, 230)"></circle><circle class="wg-volcano-dot" r="3.321928094887362" cx="698.2717444773949" cy="400" fill="rgb(206, 206, 229)"></circle><circle class="wg-volcano-dot" r="3.807354922057604" cx="667.4757362537241" cy="400" fill="rgb(199, 200, 225)"></circle><circle class="wg-volcano-dot" r="2.584962500721156" cx="750.0571072896462" cy="400" fill="rgb(212, 212, 232)"></circle><circle class="wg-volcano-dot" r="4.321928094887362" cx="637.6971596793362" cy="400" fill="rgb(190, 190, 220)"></circle><circle class="wg-volcano-dot" r="4.321928094887362" cx="635.9601290732679" cy="400" fill="rgb(190, 190, 220)"></circle><circle class="wg-volcano-dot" r="2.584962500721156" cx="741.2533792030754" cy="400" fill="rgb(212, 212, 232)"></circle><circle class="wg-volcano-dot" r="4.169925001442312" cx="639.836098152203" cy="400" fill="rgb(193, 193, 222)"></circle><circle class="wg-volcano-dot" r="3.584962500721156" cx="663.3206858933769" cy="400" fill="rgb(202, 203, 227)"></circle><circle class="wg-volcano-dot" r="2.584962500721156" cx="724.4936864126089" cy="400" fill="rgb(212, 212, 232)"></circle><circle class="wg-volcano-dot" r="4.584962500721156" cx="616.5093748189257" cy="400" fill="rgb(184, 184, 217)"></circle><circle class="wg-volcano-dot" r="4.169925001442312" cx="630.2525343223458" cy="400" fill="rgb(193, 193, 222)"></circle><circle class="wg-volcano-dot" r="3.807354922057604" cx="640.9542273601899" cy="400" fill="rgb(199, 200, 225)"></circle><circle class="wg-volcano-dot" r="3" cx="683.3063221233507" cy="400" fill="rgb(209, 209, 230)"></circle><circle class="wg-volcano-dot" r="3" cx="683.3063221233507" cy="400" fill="rgb(209, 209, 230)"></circle><circle class="wg-volcano-dot" r="4.321928094887362" cx="619.2004362828014" cy="400" fill="rgb(190, 190, 220)"></circle><circle class="wg-volcano-dot" r="2" cx="754.5734838629553" cy="400" fill="rgb(215, 215, 233)"></circle><circle class="wg-volcano-dot" r="3.321928094887362" cx="653.876550312432" cy="400" fill="rgb(206, 206, 229)"></circle><circle class="wg-volcano-dot" r="2.584962500721156" cx="693.9071861529928" cy="400" fill="rgb(212, 212, 232)"></circle><circle class="wg-volcano-dot" r="3.807354922057604" cx="626.2511437933236" cy="400" fill="rgb(199, 200, 225)"></circle><circle class="wg-volcano-dot" r="3" cx="663.3206858933769" cy="400" fill="rgb(209, 209, 230)"></circle><circle class="wg-volcano-dot" r="3.321928094887362" cx="642.9790727641231" cy="400" fill="rgb(206, 206, 229)"></circle><circle class="wg-volcano-dot" r="4.321928094887362" cx="606.5303572623487" cy="400" fill="rgb(190, 190, 220)"></circle><circle class="wg-volcano-dot" r="2" cx="873.9071861529927" cy="400" fill="rgb(218, 218, 235)"></circle><circle class="wg-volcano-dot" r="2" cx="873.9071861529927" cy="400" fill="rgb(218, 218, 235)"></circle><circle class="wg-volcano-dot" r="4.584962500721156" cx="598.4145371472118" cy="400" fill="rgb(184, 184, 217)"></circle><circle class="wg-volcano-dot" r="2" cx="728.5833001826243" cy="400" fill="rgb(215, 215, 233)"></circle><circle class="wg-volcano-dot" r="3.321928094887362" cx="639.4458875493156" cy="400" fill="rgb(206, 206, 229)"></circle><circle class="wg-volcano-dot" r="2.584962500721156" cx="679.8667339927631" cy="400" fill="rgb(212, 212, 232)"></circle><circle class="wg-volcano-dot" r="4" cx="613.1842960060591" cy="400" fill="rgb(196, 197, 224)"></circle><circle class="wg-volcano-dot" r="3.584962500721156" cx="627.4451004131633" cy="400" fill="rgb(202, 203, 227)"></circle><circle class="wg-volcano-dot" r="3.807354922057604" cx="619.2004362828014" cy="400" fill="rgb(199, 200, 225)"></circle><circle class="wg-volcano-dot" r="4" cx="609.2495978925872" cy="400" fill="rgb(196, 197, 224)"></circle><circle class="wg-volcano-dot" r="3.584962500721156" cx="619.2004362828014" cy="400" fill="rgb(202, 203, 227)"></circle><circle class="wg-volcano-dot" r="2" cx="704.959284192539" cy="400" fill="rgb(215, 215, 233)"></circle><circle class="wg-volcano-dot" r="3.584962500721156" cx="616.5093748189257" cy="400" fill="rgb(202, 203, 227)"></circle><circle class="wg-volcano-dot" r="2.584962500721156" cx="660.1343255813532" cy="400" fill="rgb(212, 212, 232)"></circle><circle class="wg-volcano-dot" r="4" cx="601.5546613499067" cy="400" fill="rgb(196, 197, 224)"></circle><circle class="wg-volcano-dot" r="3.807354922057604" cx="605.6485733680386" cy="400" fill="rgb(199, 200, 225)"></circle><circle class="wg-volcano-dot" r="2.584962500721156" cx="653.876550312432" cy="400" fill="rgb(212, 212, 232)"></circle><circle class="wg-volcano-dot" r="3.807354922057604" cx="601.2840150436369" cy="400" fill="rgb(199, 200, 225)"></circle><circle class="wg-volcano-dot" r="4.169925001442312" cx="591.8398794626926" cy="400" fill="rgb(193, 193, 222)"></circle><circle class="wg-volcano-dot" r="3.321928094887362" cx="612.7881325312707" cy="400" fill="rgb(206, 206, 229)"></circle><circle class="wg-volcano-dot" r="3" cx="623.2900500528154" cy="400" fill="rgb(209, 209, 230)"></circle><circle class="wg-volcano-dot" r="2.584962500721156" cx="641.7959950578954" cy="400" fill="rgb(212, 212, 232)"></circle><circle class="wg-volcano-dot" r="2" cx="673.1212870174041" cy="400" fill="rgb(215, 215, 233)"></circle><circle class="wg-volcano-dot" r="2" cx="673.1212870174041" cy="400" fill="rgb(215, 215, 233)"></circle><circle class="wg-volcano-dot" r="4.169925001442312" cx="585.4275757111618" cy="400" fill="rgb(193, 193, 222)"></circle><circle class="wg-volcano-dot" r="2.584962500721156" cx="635.9601290732679" cy="400" fill="rgb(212, 212, 232)"></circle><circle class="wg-volcano-dot" r="3.321928094887362" cx="606.5303572623487" cy="400" fill="rgb(206, 206, 229)"></circle><circle class="wg-volcano-dot" r="2" cx="768.613936023184" cy="400" fill="rgb(218, 218, 235)"></circle><circle class="wg-volcano-dot" r="2" cx="768.613936023184" cy="400" fill="rgb(218, 218, 235)"></circle><circle class="wg-volcano-dot" r="3" cx="615.1742299376798" cy="400" fill="rgb(209, 209, 230)"></circle><circle class="wg-volcano-dot" r="4" cx="586.8168000801122" cy="400" fill="rgb(196, 197, 224)"></circle><circle class="wg-volcano-dot" r="4" cx="586.8168000801122" cy="400" fill="rgb(196, 197, 224)"></circle><circle class="wg-volcano-dot" r="2.584962500721156" cx="630.2525343223458" cy="400" fill="rgb(212, 212, 232)"></circle><circle class="wg-volcano-dot" r="4.807354922057604" cx="571.661096992978" cy="400" fill="rgb(178, 177, 213)"></circle><circle class="wg-volcano-dot" r="4.906890595608519" cx="569.1631817688432" cy="400" fill="rgb(175, 173, 211)"></circle><circle class="wg-volcano-dot" r="2.584962500721156" cx="624.6676931106343" cy="400" fill="rgb(212, 212, 232)"></circle><circle class="wg-volcano-dot" r="2" cx="653.876550312432" cy="400" fill="rgb(215, 215, 233)"></circle><circle class="wg-volcano-dot" r="2" cx="653.876550312432" cy="400" fill="rgb(215, 215, 233)"></circle><circle class="wg-volcano-dot" r="4.459431618637297" cx="573.3339344576129" cy="400" fill="rgb(187, 187, 219)"></circle><circle class="wg-volcano-dot" r="3.321928094887362" cx="594.4498020078119" cy="400" fill="rgb(206, 206, 229)"></circle><circle class="wg-volcano-dot" r="3.807354922057604" cx="582.5034162769838" cy="400" fill="rgb(199, 200, 225)"></circle><circle class="wg-volcano-dot" r="4" cx="578.0130719935428" cy="400" fill="rgb(196, 197, 224)"></circle><circle class="wg-volcano-dot" r="2" cx="644.7638571598375" cy="400" fill="rgb(215, 215, 233)"></circle><circle class="wg-volcano-dot" r="3.807354922057604" cx="580.4981159080479" cy="400" fill="rgb(199, 200, 225)"></circle><circle class="wg-volcano-dot" r="3" cx="599.6660340627302" cy="400" fill="rgb(209, 209, 230)"></circle><circle class="wg-volcano-dot" r="3" cx="595.9294932327067" cy="400" fill="rgb(209, 209, 230)"></circle><circle class="wg-volcano-dot" r="2" cx="716.5027449280868" cy="400" fill="rgb(218, 218, 235)"></circle><circle class="wg-volcano-dot" r="2" cx="635.9601290732679" cy="400" fill="rgb(215, 215, 233)"></circle><circle class="wg-volcano-dot" r="2.584962500721156" cx="608.5995722531579" cy="400" fill="rgb(212, 212, 232)"></circle><circle class="wg-volcano-dot" r="3" cx="592.2459547719584" cy="400" fill="rgb(209, 209, 230)"></circle><circle class="wg-volcano-dot" r="2" cx="627.4451004131633" cy="400" fill="rgb(215, 215, 233)"></circle><circle class="wg-volcano-dot" r="2" cx="627.4451004131633" cy="400" fill="rgb(215, 215, 233)"></circle><circle class="wg-volcano-dot" r="3" cx="588.613936023184" cy="400" fill="rgb(209, 209, 230)"></circle><circle class="wg-volcano-dot" r="3" cx="588.613936023184" cy="400" fill="rgb(209, 209, 230)"></circle><circle class="wg-volcano-dot" r="4.584962500721156" cx="560.1736058912162" cy="400" fill="rgb(184, 184, 217)"></circle><circle class="wg-volcano-dot" r="2" cx="619.2004362828014" cy="400" fill="rgb(215, 215, 233)"></circle><circle class="wg-volcano-dot" r="4" cx="564.5199016109226" cy="400" fill="rgb(196, 197, 224)"></circle><circle class="wg-volcano-dot" r="3.807354922057604" cx="566.8785473202742" cy="400" fill="rgb(199, 200, 225)"></circle><circle class="wg-volcano-dot" r="3.584962500721156" cx="567.8280368875953" cy="400" fill="rgb(202, 203, 227)"></circle><circle class="wg-volcano-dot" r="3.321928094887362" cx="571.8542432327189" cy="400" fill="rgb(206, 206, 229)"></circle><circle class="wg-volcano-dot" r="2" cx="673.1212870174041" cy="400" fill="rgb(218, 218, 235)"></circle><circle class="wg-volcano-dot" r="2" cx="673.1212870174041" cy="400" fill="rgb(218, 218, 235)"></circle><circle class="wg-volcano-dot" r="2" cx="673.1212870174041" cy="400" fill="rgb(218, 218, 235)"></circle><circle class="wg-volcano-dot" r="2.584962500721156" cx="583.8489379781693" cy="400" fill="rgb(212, 212, 232)"></circle><circle class="wg-volcano-dot" r="2" cx="603.4571248577399" cy="400" fill="rgb(215, 215, 233)"></circle><circle class="wg-volcano-dot" r="3.321928094887362" cx="566.4997214217881" cy="400" fill="rgb(206, 206, 229)"></circle><circle class="wg-volcano-dot" r="6.882643049361842" cx="543.3956504960539" cy="400" fill="rgb(63, 0, 125)"></circle><circle class="wg-volcano-dot" r="4" cx="556.4293685212072" cy="400" fill="rgb(196, 197, 224)"></circle><circle class="wg-volcano-dot" r="2.584962500721156" cx="579.1698004422395" cy="400" fill="rgb(212, 212, 232)"></circle><circle class="wg-volcano-dot" r="2" cx="595.9294932327067" cy="400" fill="rgb(215, 215, 233)"></circle><circle class="wg-volcano-dot" r="3" cx="567.8280368875953" cy="400" fill="rgb(209, 209, 230)"></circle><circle class="wg-volcano-dot" r="3" cx="567.8280368875953" cy="400" fill="rgb(209, 209, 230)"></circle><circle class="wg-volcano-dot" r="4.169925001442312" cx="552.7383505429721" cy="400" fill="rgb(193, 193, 222)"></circle><circle class="wg-volcano-dot" r="3.321928094887362" cx="561.2533792030765" cy="400" fill="rgb(206, 206, 229)"></circle><circle class="wg-volcano-dot" r="2.584962500721156" cx="574.5734838629564" cy="400" fill="rgb(212, 212, 232)"></circle><circle class="wg-volcano-dot" r="3" cx="564.5199016109226" cy="400" fill="rgb(209, 209, 230)"></circle><circle class="wg-volcano-dot" r="3.807354922057604" cx="553.9378219935537" cy="400" fill="rgb(199, 200, 225)"></circle><circle class="wg-volcano-dot" r="3.807354922057604" cx="553.9378219935537" cy="400" fill="rgb(199, 200, 225)"></circle><circle class="wg-volcano-dot" r="2" cx="588.613936023184" cy="400" fill="rgb(215, 215, 233)"></circle><circle class="wg-volcano-dot" r="2" cx="635.9601290732679" cy="400" fill="rgb(218, 218, 235)"></circle><circle class="wg-volcano-dot" r="2.584962500721156" cx="565.6179375274779" cy="400" fill="rgb(212, 212, 232)"></circle><circle class="wg-volcano-dot" r="3.584962500721156" cx="548.5833001826229" cy="400" fill="rgb(202, 203, 227)"></circle><circle class="wg-volcano-dot" r="2.584962500721156" cx="561.2533792030765" cy="400" fill="rgb(212, 212, 232)"></circle><circle class="wg-volcano-dot" r="2" cx="574.5734838629564" cy="400" fill="rgb(215, 215, 233)"></circle><circle class="wg-volcano-dot" r="3.584962500721156" cx="546.5304427936182" cy="400" fill="rgb(202, 203, 227)"></circle><circle class="wg-volcano-dot" r="3.321928094887362" cx="548.5833001826229" cy="400" fill="rgb(206, 206, 229)"></circle><circle class="wg-volcano-dot" r="2.584962500721156" cx="556.9609656512898" cy="400" fill="rgb(212, 212, 232)"></circle><circle class="wg-volcano-dot" r="2" cx="567.8280368875953" cy="400" fill="rgb(215, 215, 233)"></circle><circle class="wg-volcano-dot" r="3.321928094887362" cx="546.1218115411508" cy="400" fill="rgb(206, 206, 229)"></circle><circle class="wg-volcano-dot" r="3" cx="548.5833001826229" cy="400" fill="rgb(209, 209, 230)"></circle><circle class="wg-volcano-dot" r="2.584962500721156" cx="552.7383505429721" cy="400" fill="rgb(212, 212, 232)"></circle><circle class="wg-volcano-dot" r="5" cx="537.9824361529814" cy="400" fill="rgb(171, 170, 209)"></circle><circle class="wg-volcano-dot" r="2" cx="603.4571248577399" cy="400" fill="rgb(218, 218, 235)"></circle><circle class="wg-volcano-dot" r="2" cx="603.4571248577399" cy="400" fill="rgb(218, 218, 235)"></circle><circle class="wg-volcano-dot" r="4.169925001442312" cx="539.1391646016796" cy="400" fill="rgb(193, 193, 222)"></circle><circle class="wg-volcano-dot" r="4" cx="539.4706070300294" cy="400" fill="rgb(196, 197, 224)"></circle><circle class="wg-volcano-dot" r="2" cx="561.2533792030765" cy="400" fill="rgb(215, 215, 233)"></circle><circle class="wg-volcano-dot" r="2" cx="561.2533792030765" cy="400" fill="rgb(215, 215, 233)"></circle><circle class="wg-volcano-dot" r="3.584962500721156" cx="540.4674800674866" cy="400" fill="rgb(202, 203, 227)"></circle><circle class="wg-volcano-dot" r="5.247927513443585" cx="535.882230636763" cy="400" fill="rgb(162, 159, 203)"></circle><circle class="wg-volcano-dot" r="4" cx="536.5027449280874" cy="400" fill="rgb(196, 197, 224)"></circle><circle class="wg-volcano-dot" r="3" cx="539.4706070300294" cy="400" fill="rgb(209, 209, 230)"></circle><circle class="wg-volcano-dot" r="3" cx="539.4706070300294" cy="400" fill="rgb(209, 209, 230)"></circle><circle class="wg-volcano-dot" r="3.321928094887362" cx="536.5027449280874" cy="400" fill="rgb(206, 206, 229)"></circle><circle class="wg-volcano-dot" r="2.584962500721156" cx="540.4674800674866" cy="400" fill="rgb(212, 212, 232)"></circle><circle class="wg-volcano-dot" r="2.584962500721156" cx="540.4674800674866" cy="400" fill="rgb(212, 212, 232)"></circle><circle class="wg-volcano-dot" r="3" cx="536.5027449280874" cy="400" fill="rgb(209, 209, 230)"></circle><circle class="wg-volcano-dot" r="2" cx="574.5734838629564" cy="400" fill="rgb(218, 218, 235)"></circle><circle class="wg-volcano-dot" r="2" cx="574.5734838629564" cy="400" fill="rgb(218, 218, 235)"></circle><circle class="wg-volcano-dot" r="3.321928094887362" cx="531.8236073921572" cy="400" fill="rgb(206, 206, 229)"></circle><circle class="wg-volcano-dot" r="3" cx="530.6668789434593" cy="400" fill="rgb(209, 209, 230)"></circle><circle class="wg-volcano-dot" r="3.807354922057604" cx="528.2053903019856" cy="400" fill="rgb(199, 200, 225)"></circle><circle class="wg-volcano-dot" r="2" cx="536.5027449280874" cy="400" fill="rgb(215, 215, 233)"></circle><circle class="wg-volcano-dot" r="3.321928094887362" cx="527.2272908128726" cy="400" fill="rgb(206, 206, 229)"></circle><circle class="wg-volcano-dot" r="2" cx="561.2533792030765" cy="400" fill="rgb(218, 218, 235)"></circle><circle class="wg-volcano-dot" r="2.584962500721156" cx="528.7503749875476" cy="400" fill="rgb(212, 212, 232)"></circle><circle class="wg-volcano-dot" r="2.584962500721156" cx="528.7503749875476" cy="400" fill="rgb(212, 212, 232)"></circle><circle class="wg-volcano-dot" r="3" cx="524.9592841925385" cy="400" fill="rgb(209, 209, 230)"></circle><circle class="wg-volcano-dot" r="2" cx="548.5833001826229" cy="400" fill="rgb(218, 218, 235)"></circle><circle class="wg-volcano-dot" r="3.584962500721156" cx="521.2227433625148" cy="400" fill="rgb(202, 203, 227)"></circle><circle class="wg-volcano-dot" r="2.584962500721156" cx="521.2227433625148" cy="400" fill="rgb(212, 212, 232)"></circle><circle class="wg-volcano-dot" r="2.584962500721156" cx="521.2227433625148" cy="400" fill="rgb(212, 212, 232)"></circle><circle class="wg-volcano-dot" r="3.584962500721156" cx="519.3744429808261" cy="400" fill="rgb(202, 203, 227)"></circle><circle class="wg-volcano-dot" r="2.584962500721156" cx="517.539204901766" cy="400" fill="rgb(212, 212, 232)"></circle><circle class="wg-volcano-dot" r="3" cx="516.6264267832302" cy="400" fill="rgb(209, 209, 230)"></circle><circle class="wg-volcano-dot" r="3" cx="516.6264267832302" cy="400" fill="rgb(209, 209, 230)"></circle><circle class="wg-volcano-dot" r="2" cx="519.3744429808261" cy="400" fill="rgb(215, 215, 233)"></circle><circle class="wg-volcano-dot" r="2" cx="519.3744429808261" cy="400" fill="rgb(215, 215, 233)"></circle><circle class="wg-volcano-dot" r="2" cx="519.3744429808261" cy="400" fill="rgb(215, 215, 233)"></circle><circle class="wg-volcano-dot" r="2" cx="519.3744429808261" cy="400" fill="rgb(215, 215, 233)"></circle><circle class="wg-volcano-dot" r="3" cx="513.9071861529925" cy="400" fill="rgb(209, 209, 230)"></circle><circle class="wg-volcano-dot" r="2" cx="513.9071861529925" cy="400" fill="rgb(215, 215, 233)"></circle><circle class="wg-volcano-dot" r="2" cx="513.9071861529925" cy="400" fill="rgb(215, 215, 233)"></circle><circle class="wg-volcano-dot" r="2" cx="513.9071861529925" cy="400" fill="rgb(215, 215, 233)"></circle><circle class="wg-volcano-dot" r="3" cx="511.2161246891177" cy="400" fill="rgb(209, 209, 230)"></circle><circle class="wg-volcano-dot" r="3" cx="511.2161246891177" cy="400" fill="rgb(209, 209, 230)"></circle><circle class="wg-volcano-dot" r="2" cx="524.9592841925385" cy="400" fill="rgb(218, 218, 235)"></circle><circle class="wg-volcano-dot" r="2" cx="524.9592841925385" cy="400" fill="rgb(218, 218, 235)"></circle><circle class="wg-volcano-dot" r="3" cx="508.55266434206317" cy="400" fill="rgb(209, 209, 230)"></circle><circle class="wg-volcano-dot" r="3" cx="505.9162446684711" cy="400" fill="rgb(209, 209, 230)"></circle><circle class="wg-volcano-dot" r="2" cx="513.9071861529925" cy="400" fill="rgb(218, 218, 235)"></circle><circle class="wg-volcano-dot" r="2" cx="513.9071861529925" cy="400" fill="rgb(218, 218, 235)"></circle><circle class="wg-volcano-dot" r="3" cx="503.3063221233502" cy="400" fill="rgb(209, 209, 230)"></circle><circle class="wg-volcano-dot" r="2" cx="503.3063221233502" cy="400" fill="rgb(218, 218, 235)"></circle><circle class="wg-volcano-dot" r="3.321928094887362" cx="501.2371071325411" cy="400" fill="rgb(206, 206, 229)"></circle><circle class="wg-volcano-dot" r="4.169925001442312" cx="506.7920805993978" cy="400" fill="rgb(193, 193, 222)"></circle><circle class="wg-volcano-dot" r="2" cx="488.17475446142504" cy="400" fill="rgb(215, 215, 233)"></circle><circle class="wg-volcano-dot" r="2.584962500721156" cx="489.8131517407304" cy="400" fill="rgb(212, 212, 232)"></circle><circle class="wg-volcano-dot" r="2" cx="483.32068589337626" cy="400" fill="rgb(215, 215, 233)"></circle><circle class="wg-volcano-dot" r="3.807354922057604" cx="498.8923046792179" cy="400" fill="rgb(199, 200, 225)"></circle><circle class="wg-volcano-dot" r="3" cx="490.63624310289873" cy="400" fill="rgb(209, 209, 230)"></circle><circle class="wg-volcano-dot" r="2" cx="473.87655031243196" cy="400" fill="rgb(218, 218, 235)"></circle><circle class="wg-volcano-dot" r="2.584962500721156" cx="480.13432558135383" cy="400" fill="rgb(212, 212, 232)"></circle><circle class="wg-volcano-dot" r="3.807354922057604" cx="493.12128701740414" cy="400" fill="rgb(199, 200, 225)"></circle><circle class="wg-volcano-dot" r="2" cx="469.28023373314727" cy="400" fill="rgb(215, 215, 233)"></circle><circle class="wg-volcano-dot" r="3.321928094887362" cx="483.32068589337626" cy="400" fill="rgb(206, 206, 229)"></circle><circle class="wg-volcano-dot" r="2" cx="455.9601290732675" cy="400" fill="rgb(218, 218, 235)"></circle><circle class="wg-volcano-dot" r="3" cx="473.87655031243196" cy="400" fill="rgb(209, 209, 230)"></circle><circle class="wg-volcano-dot" r="2" cx="447.44510041316335" cy="400" fill="rgb(218, 218, 235)"></circle><circle class="wg-volcano-dot" r="2" cx="447.44510041316335" cy="400" fill="rgb(218, 218, 235)"></circle><circle class="wg-volcano-dot" r="3.321928094887362" cx="477.6130911424555" cy="400" fill="rgb(206, 206, 229)"></circle><circle class="wg-volcano-dot" r="2" cx="439.2004362828007" cy="400" fill="rgb(218, 218, 235)"></circle><circle class="wg-volcano-dot" r="2.584962500721156" cx="458.86166883865735" cy="400" fill="rgb(212, 212, 232)"></circle><circle class="wg-volcano-dot" r="2" cx="447.44510041316335" cy="400" fill="rgb(215, 215, 233)"></circle><circle class="wg-volcano-dot" r="3.321928094887362" cx="470.19301185168314" cy="400" fill="rgb(206, 206, 229)"></circle><circle class="wg-volcano-dot" r="2.584962500721156" cx="455.9601290732675" cy="400" fill="rgb(212, 212, 232)"></circle><circle class="wg-volcano-dot" r="2" cx="423.4571248577396" cy="400" fill="rgb(218, 218, 235)"></circle><circle class="wg-volcano-dot" r="2" cx="423.4571248577396" cy="400" fill="rgb(218, 218, 235)"></circle><circle class="wg-volcano-dot" r="2" cx="439.2004362828007" cy="400" fill="rgb(215, 215, 233)"></circle><circle class="wg-volcano-dot" r="2" cx="439.2004362828007" cy="400" fill="rgb(215, 215, 233)"></circle><circle class="wg-volcano-dot" r="3.584962500721156" cx="469.28023373314727" cy="400" fill="rgb(202, 203, 227)"></circle><circle class="wg-volcano-dot" r="2.584962500721156" cx="444.66769311063405" cy="400" fill="rgb(212, 212, 232)"></circle><circle class="wg-volcano-dot" r="2" cx="431.20949479827925" cy="400" fill="rgb(215, 215, 233)"></circle><circle class="wg-volcano-dot" r="2" cx="431.20949479827925" cy="400" fill="rgb(215, 215, 233)"></circle><circle class="wg-volcano-dot" r="2" cx="408.6139360231844" cy="400" fill="rgb(218, 218, 235)"></circle><circle class="wg-volcano-dot" r="2.584962500721156" cx="441.91967691303824" cy="400" fill="rgb(212, 212, 232)"></circle><circle class="wg-volcano-dot" r="2" cx="427.3043820004016" cy="400" fill="rgb(215, 215, 233)"></circle><circle class="wg-volcano-dot" r="5.321928094887363" cx="495.12658738634" cy="400" fill="rgb(159, 156, 202)"></circle><circle class="wg-volcano-dot" r="2.584962500721156" cx="439.2004362828007" cy="400" fill="rgb(212, 212, 232)"></circle><circle class="wg-volcano-dot" r="2" cx="401.4988304695898" cy="400" fill="rgb(218, 218, 235)"></circle><circle class="wg-volcano-dot" r="2" cx="401.4988304695898" cy="400" fill="rgb(218, 218, 235)"></circle><circle class="wg-volcano-dot" r="3" cx="447.44510041316335" cy="400" fill="rgb(209, 209, 230)"></circle><circle class="wg-volcano-dot" r="2" cx="419.66603406273026" cy="400" fill="rgb(215, 215, 233)"></circle><circle class="wg-volcano-dot" r="2" cx="394.5734838629556" cy="400" fill="rgb(218, 218, 235)"></circle><circle class="wg-volcano-dot" r="2" cx="415.92949323270676" cy="400" fill="rgb(215, 215, 233)"></circle><circle class="wg-volcano-dot" r="3.321928094887362" cx="450.8176816778485" cy="400" fill="rgb(206, 206, 229)"></circle><circle class="wg-volcano-dot" r="2.584962500721156" cx="431.20949479827925" cy="400" fill="rgb(212, 212, 232)"></circle><circle class="wg-volcano-dot" r="2" cx="381.25337920307567" cy="400" fill="rgb(218, 218, 235)"></circle><circle class="wg-volcano-dot" r="3.584962500721156" cx="453.0906511768437" cy="400" fill="rgb(202, 203, 227)"></circle><circle class="wg-volcano-dot" r="2" cx="408.6139360231844" cy="400" fill="rgb(215, 215, 233)"></circle><circle class="wg-volcano-dot" r="2" cx="408.6139360231844" cy="400" fill="rgb(215, 215, 233)"></circle><circle class="wg-volcano-dot" r="2" cx="408.6139360231844" cy="400" fill="rgb(215, 215, 233)"></circle><circle class="wg-volcano-dot" r="3" cx="437.1795303066149" cy="400" fill="rgb(209, 209, 230)"></circle><circle class="wg-volcano-dot" r="3" cx="437.1795303066149" cy="400" fill="rgb(209, 209, 230)"></circle><circle class="wg-volcano-dot" r="2.584962500721156" cx="423.4571248577396" cy="400" fill="rgb(212, 212, 232)"></circle><circle class="wg-volcano-dot" r="3" cx="435.174229937679" cy="400" fill="rgb(209, 209, 230)"></circle><circle class="wg-volcano-dot" r="2" cx="405.0320156843975" cy="400" fill="rgb(215, 215, 233)"></circle><circle class="wg-volcano-dot" r="2.584962500721156" cx="418.4145371472122" cy="400" fill="rgb(212, 212, 232)"></circle><circle class="wg-volcano-dot" r="2" cx="398.01307199354227" cy="400" fill="rgb(215, 215, 233)"></circle><circle class="wg-volcano-dot" r="2" cx="398.01307199354227" cy="400" fill="rgb(215, 215, 233)"></circle><circle class="wg-volcano-dot" r="2" cx="362.4727804364232" cy="400" fill="rgb(218, 218, 235)"></circle><circle class="wg-volcano-dot" r="3.807354922057604" cx="449.8496093270666" cy="400" fill="rgb(199, 200, 225)"></circle><circle class="wg-volcano-dot" r="4.169925001442312" cx="458.86166883865735" cy="400" fill="rgb(193, 193, 222)"></circle><circle class="wg-volcano-dot" r="2" cx="356.5027449280871" cy="400" fill="rgb(218, 218, 235)"></circle><circle class="wg-volcano-dot" r="2" cx="387.8280368875962" cy="400" fill="rgb(215, 215, 233)"></circle><circle class="wg-volcano-dot" r="2.584962500721156" cx="406.2205079527621" cy="400" fill="rgb(212, 212, 232)"></circle><circle class="wg-volcano-dot" r="2" cx="344.95928419253823" cy="400" fill="rgb(218, 218, 235)"></circle><circle class="wg-volcano-dot" r="3.584962500721156" cx="436.5093748189257" cy="400" fill="rgb(202, 203, 227)"></circle><circle class="wg-volcano-dot" r="2" cx="339.37444298082613" cy="400" fill="rgb(218, 218, 235)"></circle><circle class="wg-volcano-dot" r="3.321928094887362" cx="426.5303572623491" cy="400" fill="rgb(206, 206, 229)"></circle><circle class="wg-volcano-dot" r="2" cx="333.9071861529925" cy="400" fill="rgb(218, 218, 235)"></circle><circle class="wg-volcano-dot" r="4" cx="445.35926504362516" cy="400" fill="rgb(196, 197, 224)"></circle><circle class="wg-volcano-dot" r="4.459431618637297" cx="453.61002156468703" cy="400" fill="rgb(187, 187, 219)"></circle><circle class="wg-volcano-dot" r="3.321928094887362" cx="417.41766410975464" cy="400" fill="rgb(206, 206, 229)"></circle><circle class="wg-volcano-dot" r="2" cx="318.1638747279314" cy="400" fill="rgb(218, 218, 235)"></circle><circle class="wg-volcano-dot" r="2.584962500721156" cx="383.4264890171792" cy="400" fill="rgb(212, 212, 232)"></circle><circle class="wg-volcano-dot" r="2.584962500721156" cx="383.4264890171792" cy="400" fill="rgb(212, 212, 232)"></circle><circle class="wg-volcano-dot" r="2" cx="356.5027449280871" cy="400" fill="rgb(215, 215, 233)"></circle><circle class="wg-volcano-dot" r="2" cx="303.3206858933763" cy="400" fill="rgb(218, 218, 235)"></circle><circle class="wg-volcano-dot" r="2.584962500721156" cx="376.96096565128937" cy="400" fill="rgb(212, 212, 232)"></circle><circle class="wg-volcano-dot" r="2" cx="298.55568784836225" cy="400" fill="rgb(218, 218, 235)"></circle><circle class="wg-volcano-dot" r="2" cx="344.95928419253823" cy="400" fill="rgb(215, 215, 233)"></circle><circle class="wg-volcano-dot" r="2.584962500721156" cx="368.583300182624" cy="400" fill="rgb(212, 212, 232)"></circle><circle class="wg-volcano-dot" r="3" cx="378.02743576356846" cy="400" fill="rgb(209, 209, 230)"></circle><circle class="wg-volcano-dot" r="2" cx="267.44510041316295" cy="400" fill="rgb(218, 218, 235)"></circle><circle class="wg-volcano-dot" r="2" cx="259.20043628280104" cy="400" fill="rgb(218, 218, 235)"></circle><circle class="wg-volcano-dot" r="3" cx="371.6933386403542" cy="400" fill="rgb(209, 209, 230)"></circle><circle class="wg-volcano-dot" r="2" cx="255.17422993767897" cy="400" fill="rgb(218, 218, 235)"></circle><circle class="wg-volcano-dot" r="2" cx="247.30438200040194" cy="400" fill="rgb(218, 218, 235)"></circle><circle class="wg-volcano-dot" r="2.584962500721156" cx="339.37444298082613" cy="400" fill="rgb(212, 212, 232)"></circle><circle class="wg-volcano-dot" r="2" cx="235.92949323270673" cy="400" fill="rgb(218, 218, 235)"></circle><circle class="wg-volcano-dot" r="3" cx="355.0314372678614" cy="400" fill="rgb(209, 209, 230)"></circle><circle class="wg-volcano-dot" r="2" cx="218.01307199354184" cy="400" fill="rgb(218, 218, 235)"></circle><circle class="wg-volcano-dot" r="2" cx="287.0122271128131" cy="400" fill="rgb(215, 215, 233)"></circle><circle class="wg-volcano-dot" r="2" cx="185.51006777801473" cy="400" fill="rgb(218, 218, 235)"></circle><circle class="wg-volcano-dot" r="2" cx="185.51006777801473" cy="400" fill="rgb(218, 218, 235)"></circle><circle class="wg-volcano-dot" r="3" cx="328.55266434206345" cy="400" fill="rgb(209, 209, 230)"></circle><circle class="wg-volcano-dot" r="2" cx="176.50274492808757" cy="400" fill="rgb(218, 218, 235)"></circle><circle class="wg-volcano-dot" r="2" cx="170.66687894345986" cy="400" fill="rgb(218, 218, 235)"></circle><circle class="wg-volcano-dot" r="2" cx="162.15185028335486" cy="400" fill="rgb(218, 218, 235)"></circle><circle class="wg-volcano-dot" r="2" cx="169.22817660782366" cy="400" fill="rgb(215, 215, 233)"></circle><circle class="wg-volcano-dot" r="2" cx="63.457124857739565" cy="400" fill="rgb(218, 218, 235)"></circle><circle class="wg-volcano-dot" r="2" cx="145.91624466847114" cy="400" fill="rgb(215, 215, 233)"></circle></g><g class="x-axis" transform="translate(0,400)" fill="none" font-size="10" font-family="sans-serif" text-anchor="middle"><path class="domain" stroke="currentColor" d="M0.5,6V0.5H900.5V6"></path><g class="tick" opacity="1" transform="translate(0.5,0)"><line stroke="currentColor" y2="6"></line><text fill="currentColor" y="9" dy="0.71em">-3.0</text></g><g class="tick" opacity="1" transform="translate(90.5,0)"><line stroke="currentColor" y2="6"></line><text fill="currentColor" y="9" dy="0.71em">-2.5</text></g><g class="tick" opacity="1" transform="translate(180.5,0)"><line stroke="currentColor" y2="6"></line><text fill="currentColor" y="9" dy="0.71em">-2.0</text></g><g class="tick" opacity="1" transform="translate(270.5,0)"><line stroke="currentColor" y2="6"></line><text fill="currentColor" y="9" dy="0.71em">-1.5</text></g><g class="tick" opacity="1" transform="translate(360.5,0)"><line stroke="currentColor" y2="6"></line><text fill="currentColor" y="9" dy="0.71em">-1.0</text></g><g class="tick" opacity="1" transform="translate(450.5,0)"><line stroke="currentColor" y2="6"></line><text fill="currentColor" y="9" dy="0.71em">-0.5</text></g><g class="tick" opacity="1" transform="translate(540.5,0)"><line stroke="currentColor" y2="6"></line><text fill="currentColor" y="9" dy="0.71em">0.0</text></g><g class="tick" opacity="1" transform="translate(630.5,0)"><line stroke="currentColor" y2="6"></line><text fill="currentColor" y="9" dy="0.71em">0.5</text></g><g class="tick" opacity="1" transform="translate(720.5,0)"><line stroke="currentColor" y2="6"></line><text fill="currentColor" y="9" dy="0.71em">1.0</text></g><g class="tick" opacity="1" transform="translate(810.5,0)"><line stroke="currentColor" y2="6"></line><text fill="currentColor" y="9" dy="0.71em">1.5</text></g><g class="tick" opacity="1" transform="translate(900.5,0)"><line stroke="currentColor" y2="6"></line><text fill="currentColor" y="9" dy="0.71em">2.0</text></g><text class="x-label" x="900" y="-6" fill="#000" style="text-anchor: end;">log2 of enrichment ratio</text></g><g class="y-axis" transform="translate(540,0)" fill="none" font-size="10" font-family="sans-serif" text-anchor="end"><path class="domain" stroke="currentColor" d="M-6,400.5H0.5V0.5H-6"></path><g class="tick" opacity="1" transform="translate(0,350.5)"><line stroke="currentColor" x2="-6"></line><text fill="currentColor" x="-9" dy="0.32em">0.01</text></g><g class="tick" opacity="1" transform="translate(0,300.5)"><line stroke="currentColor" x2="-6"></line><text fill="currentColor" x="-9" dy="0.32em">0.02</text></g><g class="tick" opacity="1" transform="translate(0,250.5)"><line stroke="currentColor" x2="-6"></line><text fill="currentColor" x="-9" dy="0.32em">0.03</text></g><g class="tick" opacity="1" transform="translate(0,200.5)"><line stroke="currentColor" x2="-6"></line><text fill="currentColor" x="-9" dy="0.32em">0.04</text></g><g class="tick" opacity="1" transform="translate(0,150.5)"><line stroke="currentColor" x2="-6"></line><text fill="currentColor" x="-9" dy="0.32em">0.05</text></g><g class="tick" opacity="1" transform="translate(0,100.5)"><line stroke="currentColor" x2="-6"></line><text fill="currentColor" x="-9" dy="0.32em">0.06</text></g><g class="tick" opacity="1" transform="translate(0,50.49999999999994)"><line stroke="currentColor" x2="-6"></line><text fill="currentColor" x="-9" dy="0.32em">0.07</text></g><g class="tick" opacity="1" transform="translate(0,0.5)"><line stroke="currentColor" x2="-6"></line><text fill="currentColor" x="-9" dy="0.32em">0.08</text></g><text class="y-label" transform="rotate(-90)" y="6" dy=".71em" fill="#000" style="text-anchor: end;">-Log10 of FDR</text></g></g><g class="legend"><defs><linearGradient id="gradient" x1="0%" y1="100%" x2="100%" y2="100%" spreadMethod="pad"><stop offset="0%" stop-color="#dadaeb" stop-opacity="1"></stop><stop offset="16.67%" stop-color="#bcbddc" stop-opacity="1"></stop><stop offset="33.33%" stop-color="#9e9ac8" stop-opacity="1"></stop><stop offset="50%" stop-color="#807dba" stop-opacity="1"></stop><stop offset="66.67%" stop-color="#6a51a3" stop-opacity="1"></stop><stop offset="83.33%" stop-color="#54278f" stop-opacity="1"></stop><stop offset="100%" stop-color="#3f007d" stop-opacity="1"></stop></linearGradient></defs><rect width="100" height="20" transform="translate(10,0)" style="fill: url(&quot;#gradient&quot;);"></rect><g class="y-axis" transform="translate(10,20)" fill="none" font-size="10" font-family="sans-serif" text-anchor="middle"><path class="domain" stroke="currentColor" d="M0.5,6V0.5H100.5V6"></path><g class="tick" opacity="1" transform="translate(16.017241379310345,0)"><line stroke="currentColor" y2="6"></line><text fill="currentColor" y="9" dy="0.71em">10</text></g><g class="tick" opacity="1" transform="translate(33.258620689655174,0)"><line stroke="currentColor" y2="6"></line><text fill="currentColor" y="9" dy="0.71em">20</text></g><g class="tick" opacity="1" transform="translate(50.5,0)"><line stroke="currentColor" y2="6"></line><text fill="currentColor" y="9" dy="0.71em">30</text></g><g class="tick" opacity="1" transform="translate(67.74137931034483,0)"><line stroke="currentColor" y2="6"></line><text fill="currentColor" y="9" dy="0.71em">40</text></g><g class="tick" opacity="1" transform="translate(84.98275862068965,0)"><line stroke="currentColor" y2="6"></line><text fill="currentColor" y="9" dy="0.71em">50</text></g></g></g></svg>