<svg xmlns="http://www.w3.org/2000/svg" version="1.1" viewBox="0 0 960 500" width="1920" height="1000"><g class="canvas" transform="translate(30,60)"><g class="content"><text class="dot-label has-pointer" text-anchor="middle" font-size="0.7rem" fill="#000" x="706.1497028242579" y="235.22808236526504"><tspan dy="0" x="706.1497028242579">Th17 cell differentiation</tspan></text><text class="dot-label has-pointer" text-anchor="middle" font-size="0.7rem" fill="#000" x="700.0948565100315" y="163.69197821358117"><tspan dy="0" x="700.0948565100315">Renal cell carcinoma</tspan></text><text class="dot-label has-pointer" text-anchor="middle" font-size="0.7rem" fill="#000" x="556.110902972443" y="219.95604692495465"><tspan dy="0" x="556.110902972443">Pathways in cancer</tspan></text><text class="dot-label has-pointer" text-anchor="middle" font-size="0.7rem" fill="#000" x="646.3867974196329" y="238.5133448330547"><tspan dy="0" x="646.3867974196329">Cell cycle</tspan></text><text class="dot-label has-pointer" text-anchor="middle" font-size="0.7rem" fill="#000" x="850.6321084163844" y="200.8761062283257"><tspan dy="0" x="850.6321084163844">Ubiquinone and other</tspan><tspan dy="14" x="850.6321084163844">terpenoid-quinone</tspan><tspan dy="14" x="850.6321084163844">biosynthesis</tspan></text><text class="dot-label has-pointer" text-anchor="middle" font-size="0.7rem" fill="#000" x="581.708030620764" y="166.85195982839622"><tspan dy="0" x="581.708030620764">MicroRNAs in cancer</tspan></text><text class="dot-label has-pointer" text-anchor="middle" font-size="0.7rem" fill="#000" x="774.9003319412325" y="174.947101412336"><tspan dy="0" x="774.9003319412325">Terpenoid backbone</tspan><tspan dy="14" x="774.9003319412325">biosynthesis</tspan></text><text class="dot-label has-pointer" text-anchor="middle" font-size="0.7rem" fill="#000" x="744.0856868627953" y="229.49253694806833"><tspan dy="0" x="744.0856868627953">Citrate cycle (TCA cycle)</tspan></text><text class="dot-label has-pointer" text-anchor="middle" font-size="0.7rem" fill="#000" x="653.939067894907" y="161.55782154348313"><tspan dy="0" x="653.939067894907">Leishmaniasis</tspan></text><text class="dot-label has-pointer" text-anchor="middle" font-size="0.7rem" fill="#000" x="617.7997702392038" y="229.67763404733793"><tspan dy="0" x="617.7997702392038">C-type lectin receptor</tspan><tspan dy="14" x="617.7997702392038">signaling pathway</tspan></text><circle class="wg-volcano-dot has-pointer" r="5" cx="711.6074669527902" cy="200" fill="rgb(189, 189, 220)"></circle><circle class="wg-volcano-dot has-pointer" r="4.321928094887362" cx="708.3593387513472" cy="200" fill="rgb(200, 201, 226)"></circle><circle class="wg-volcano-dot has-pointer" r="6.614709844115208" cx="577.8880756038205" cy="200" fill="rgb(126, 118, 182)"></circle><circle class="wg-volcano-dot has-pointer" r="4.906890595608519" cx="652.422209474556" cy="200" fill="rgb(191, 191, 221)"></circle><circle class="wg-volcano-dot has-pointer" r="2.584962500721156" cx="882.2977342822018" cy="200" fill="rgb(214, 214, 233)"></circle><circle class="wg-volcano-dot has-pointer" r="5.754887502163468" cx="596.0298719606119" cy="200" fill="rgb(167, 165, 206)"></circle><circle class="wg-volcano-dot has-pointer" r="3" cx="778.7280733096784" cy="200" fill="rgb(212, 212, 232)"></circle><circle class="wg-volcano-dot has-pointer" r="3.321928094887362" cx="740.1990577211993" cy="200" fill="rgb(210, 210, 231)"></circle><circle class="wg-volcano-dot has-pointer" r="4.169925001442312" cx="665.319954764899" cy="200" fill="rgb(202, 203, 227)"></circle><circle class="wg-volcano-dot has-pointer" r="4.584962500721156" cx="636.8839525730172" cy="200" fill="rgb(196, 197, 224)"></circle><circle class="wg-volcano-dot" r="3.321928094887362" cx="730.7379147655274" cy="200" fill="rgb(210, 210, 231)"></circle><circle class="wg-volcano-dot" r="3.321928094887362" cx="721.5771768429026" cy="200" fill="rgb(210, 210, 231)"></circle><circle class="wg-volcano-dot" r="5.087462841250339" cx="604.9384952692818" cy="200" fill="rgb(187, 187, 218)"></circle><circle class="wg-volcano-dot" r="4" cx="661.7355731654472" cy="200" fill="rgb(204, 205, 228)"></circle><circle class="wg-volcano-dot" r="5" cx="605.7139893268999" cy="200" fill="rgb(189, 189, 220)"></circle><circle class="wg-volcano-dot" r="4" cx="657.1915578654292" cy="200" fill="rgb(204, 205, 228)"></circle><circle class="wg-volcano-dot" r="4.459431618637297" cx="623.206557576968" cy="200" fill="rgb(198, 199, 225)"></circle><circle class="wg-volcano-dot" r="3" cx="728.4203199104852" cy="200" fill="rgb(212, 212, 232)"></circle><circle class="wg-volcano-dot" r="4.169925001442312" cx="634.0961143814418" cy="200" fill="rgb(202, 203, 227)"></circle><circle class="wg-volcano-dot" r="3.584962500721156" cx="669.4716667982585" cy="200" fill="rgb(208, 209, 230)"></circle><circle class="wg-volcano-dot" r="5.087462841250339" cx="591.1136231383176" cy="200" fill="rgb(187, 187, 218)"></circle><circle class="wg-volcano-dot" r="3" cx="717.1036142372111" cy="200" fill="rgb(212, 212, 232)"></circle><circle class="wg-volcano-dot" r="3" cx="717.1036142372111" cy="200" fill="rgb(212, 212, 232)"></circle><circle class="wg-volcano-dot" r="4.321928094887362" cx="623.206557576968" cy="200" fill="rgb(200, 201, 226)"></circle><circle class="wg-volcano-dot" r="4.321928094887362" cx="623.206557576968" cy="200" fill="rgb(200, 201, 226)"></circle><circle class="wg-volcano-dot" r="3.584962500721156" cx="663.266287674134" cy="200" fill="rgb(208, 209, 230)"></circle><circle class="wg-volcano-dot" r="5.087462841250339" cx="586.0954269457519" cy="200" fill="rgb(187, 187, 218)"></circle><circle class="wg-volcano-dot" r="2" cx="823.2065575769672" cy="200" fill="rgb(216, 216, 234)"></circle><circle class="wg-volcano-dot" r="2.584962500721156" cx="740.1990577211993" cy="200" fill="rgb(214, 214, 233)"></circle><circle class="wg-volcano-dot" r="4.169925001442312" cx="619.6661572302763" cy="200" fill="rgb(202, 203, 227)"></circle><circle class="wg-volcano-dot" r="5.523561956057013" cx="568.7470921444146" cy="200" fill="rgb(175, 174, 211)"></circle><circle class="wg-volcano-dot" r="3.321928094887362" cx="664.4967330704532" cy="200" fill="rgb(210, 210, 231)"></circle><circle class="wg-volcano-dot" r="2.584962500721156" cx="724.5985553209435" cy="200" fill="rgb(214, 214, 233)"></circle><circle class="wg-volcano-dot" r="4.321928094887362" cx="604.5846766986714" cy="200" fill="rgb(200, 201, 226)"></circle><circle class="wg-volcano-dot" r="4.807354922057604" cx="582.6807242739636" cy="200" fill="rgb(193, 193, 222)"></circle><circle class="wg-volcano-dot" r="4.700439718141093" cx="586.2230143934102" cy="200" fill="rgb(195, 195, 223)"></circle><circle class="wg-volcano-dot" r="3" cx="675.8134387437258" cy="200" fill="rgb(212, 212, 232)"></circle><circle class="wg-volcano-dot" r="4.169925001442312" cx="602.5878589841473" cy="200" fill="rgb(202, 203, 227)"></circle><circle class="wg-volcano-dot" r="3.807354922057604" cx="618.6625422769503" cy="200" fill="rgb(206, 207, 229)"></circle><circle class="wg-volcano-dot" r="3.321928094887362" cx="643.1136922871508" cy="200" fill="rgb(210, 210, 231)"></circle><circle class="wg-volcano-dot" r="4.169925001442312" cx="599.2902344264339" cy="200" fill="rgb(202, 203, 227)"></circle><circle class="wg-volcano-dot" r="4.321928094887362" cx="592.8059388879576" cy="200" fill="rgb(200, 201, 226)"></circle><circle class="wg-volcano-dot" r="4.459431618637297" cx="587.6068971813683" cy="200" fill="rgb(198, 199, 225)"></circle><circle class="wg-volcano-dot" r="4.459431618637297" cx="587.6068971813683" cy="200" fill="rgb(198, 199, 225)"></circle><circle class="wg-volcano-dot" r="4.700439718141093" cx="577.6730849015427" cy="200" fill="rgb(195, 195, 223)"></circle><circle class="wg-volcano-dot" r="3.584962500721156" cx="623.206557576968" cy="200" fill="rgb(208, 209, 230)"></circle><circle class="wg-volcano-dot" r="3.584962500721156" cx="623.206557576968" cy="200" fill="rgb(208, 209, 230)"></circle><circle class="wg-volcano-dot" r="3" cx="657.1915578654292" cy="200" fill="rgb(212, 212, 232)"></circle><circle class="wg-volcano-dot" r="4.459431618637297" cx="582.4998787599412" cy="200" fill="rgb(198, 199, 225)"></circle><circle class="wg-volcano-dot" r="5.321928094887363" cx="553.7364192235148" cy="200" fill="rgb(181, 180, 215)"></circle><circle class="wg-volcano-dot" r="4.906890595608519" cx="563.5617907177495" cy="200" fill="rgb(191, 191, 221)"></circle><circle class="wg-volcano-dot" r="4.584962500721156" cx="571.9386069250097" cy="200" fill="rgb(196, 197, 224)"></circle><circle class="wg-volcano-dot" r="2.584962500721156" cx="669.4716667982585" cy="200" fill="rgb(214, 214, 233)"></circle><circle class="wg-volcano-dot" r="2.584962500721156" cx="669.4716667982585" cy="200" fill="rgb(214, 214, 233)"></circle><circle class="wg-volcano-dot" r="4.584962500721156" cx="569.7104954039698" cy="200" fill="rgb(196, 197, 224)"></circle><circle class="wg-volcano-dot" r="4.169925001442312" cx="577.2054364877031" cy="200" fill="rgb(202, 203, 227)"></circle><circle class="wg-volcano-dot" r="3.807354922057604" cx="588.7131183760134" cy="200" fill="rgb(206, 207, 229)"></circle><circle class="wg-volcano-dot" r="3.807354922057604" cx="584.6775419884883" cy="200" fill="rgb(206, 207, 229)"></circle><circle class="wg-volcano-dot" r="4.169925001442312" cx="565.3052341379714" cy="200" fill="rgb(202, 203, 227)"></circle><circle class="wg-volcano-dot" r="4.321928094887362" cx="560.1061924313815" cy="200" fill="rgb(200, 201, 226)"></circle><circle class="wg-volcano-dot" r="4" cx="568.6028586956835" cy="200" fill="rgb(204, 205, 228)"></circle><circle class="wg-volcano-dot" r="3.807354922057604" cx="572.8988041777739" cy="200" fill="rgb(206, 207, 229)"></circle><circle class="wg-volcano-dot" r="4.906890595608519" cx="545.0485669705344" cy="200" fill="rgb(191, 191, 221)"></circle><circle class="wg-volcano-dot" r="4.906890595608519" cx="543.422990793853" cy="200" fill="rgb(191, 191, 221)"></circle><circle class="wg-volcano-dot" r="5.087462841250339" cx="540.199057721198" cy="200" fill="rgb(187, 187, 218)"></circle><circle class="wg-volcano-dot" r="3.584962500721156" cx="574.1840580096609" cy="200" fill="rgb(208, 209, 230)"></circle><circle class="wg-volcano-dot" r="5.807354922057604" cx="528.4203199104852" cy="200" fill="rgb(165, 163, 205)"></circle><circle class="wg-volcano-dot" r="4.169925001442312" cx="556.6914897595921" cy="200" fill="rgb(202, 203, 227)"></circle><circle class="wg-volcano-dot" r="3" cx="592.8059388879576" cy="200" fill="rgb(212, 212, 232)"></circle><circle class="wg-volcano-dot" r="2.584962500721156" cx="612.7130735981399" cy="200" fill="rgb(214, 214, 233)"></circle><circle class="wg-volcano-dot" r="4.321928094887362" cx="549.9809778173887" cy="200" fill="rgb(200, 201, 226)"></circle><circle class="wg-volcano-dot" r="4.459431618637297" cx="544.6043189871974" cy="200" fill="rgb(198, 199, 225)"></circle><circle class="wg-volcano-dot" r="3.807354922057604" cx="557.9063926415303" cy="200" fill="rgb(206, 207, 229)"></circle><circle class="wg-volcano-dot" r="3.807354922057604" cx="557.9063926415303" cy="200" fill="rgb(206, 207, 229)"></circle><circle class="wg-volcano-dot" r="4.169925001442312" cx="548.3274546206669" cy="200" fill="rgb(202, 203, 227)"></circle><circle class="wg-volcano-dot" r="2.584962500721156" cx="602.5878589841473" cy="200" fill="rgb(214, 214, 233)"></circle><circle class="wg-volcano-dot" r="3.321928094887362" cx="570.5996764102091" cy="200" fill="rgb(210, 210, 231)"></circle><circle class="wg-volcano-dot" r="4.584962500721156" cx="538.2022400066747" cy="200" fill="rgb(196, 197, 224)"></circle><circle class="wg-volcano-dot" r="4" cx="549.3597956438233" cy="200" fill="rgb(204, 205, 228)"></circle><circle class="wg-volcano-dot" r="2" cx="740.1990577211993" cy="200" fill="rgb(218, 218, 235)"></circle><circle class="wg-volcano-dot" r="3.321928094887362" cx="565.3052341379714" cy="200" fill="rgb(210, 210, 231)"></circle><circle class="wg-volcano-dot" r="4.700439718141093" cx="532.893882516175" cy="200" fill="rgb(195, 195, 223)"></circle><circle class="wg-volcano-dot" r="4.700439718141093" cx="532.893882516175" cy="200" fill="rgb(195, 195, 223)"></circle><circle class="wg-volcano-dot" r="2" cx="623.206557576968" cy="200" fill="rgb(216, 216, 234)"></circle><circle class="wg-volcano-dot" r="4" cx="543.2204361992408" cy="200" fill="rgb(204, 205, 228)"></circle><circle class="wg-volcano-dot" r="4.321928094887362" cx="535.4297093303248" cy="200" fill="rgb(200, 201, 226)"></circle><circle class="wg-volcano-dot" r="4" cx="540.199057721198" cy="200" fill="rgb(204, 205, 228)"></circle><circle class="wg-volcano-dot" r="2" cx="607.6060551767129" cy="200" fill="rgb(216, 216, 234)"></circle><circle class="wg-volcano-dot" r="4.459431618637297" cx="529.4714650007846" cy="200" fill="rgb(198, 199, 225)"></circle><circle class="wg-volcano-dot" r="3.807354922057604" cx="540.199057721198" cy="200" fill="rgb(206, 207, 229)"></circle><circle class="wg-volcano-dot" r="4.700439718141093" cx="525.7691005700314" cy="200" fill="rgb(195, 195, 223)"></circle><circle class="wg-volcano-dot" r="3.584962500721156" cx="544.2346341087242" cy="200" fill="rgb(208, 209, 230)"></circle><circle class="wg-volcano-dot" r="4.321928094887362" cx="530.7379147655263" cy="200" fill="rgb(200, 201, 226)"></circle><circle class="wg-volcano-dot" r="3" cx="558.8209385994945" cy="200" fill="rgb(212, 212, 232)"></circle><circle class="wg-volcano-dot" r="4.584962500721156" cx="526.5031101446453" cy="200" fill="rgb(196, 197, 224)"></circle><circle class="wg-volcano-dot" r="4" cx="534.2495890423872" cy="200" fill="rgb(204, 205, 228)"></circle><circle class="wg-volcano-dot" r="3.584962500721156" cx="540.199057721198" cy="200" fill="rgb(208, 209, 230)"></circle><circle class="wg-volcano-dot" r="3.584962500721156" cx="540.199057721198" cy="200" fill="rgb(208, 209, 230)"></circle><circle class="wg-volcano-dot" r="3.321928094887362" cx="545.0485669705344" cy="200" fill="rgb(210, 210, 231)"></circle><circle class="wg-volcano-dot" r="3" cx="552.4791666540265" cy="200" fill="rgb(212, 212, 232)"></circle><circle class="wg-volcano-dot" r="3.584962500721156" cx="536.2191462336589" cy="200" fill="rgb(208, 209, 230)"></circle><circle class="wg-volcano-dot" r="3" cx="546.273787529902" cy="200" fill="rgb(212, 212, 232)"></circle><circle class="wg-volcano-dot" r="3" cx="546.273787529902" cy="200" fill="rgb(212, 212, 232)"></circle><circle class="wg-volcano-dot" r="3" cx="546.273787529902" cy="200" fill="rgb(212, 212, 232)"></circle><circle class="wg-volcano-dot" r="3" cx="546.273787529902" cy="200" fill="rgb(212, 212, 232)"></circle><circle class="wg-volcano-dot" r="3.584962500721156" cx="532.2933848838715" cy="200" fill="rgb(208, 209, 230)"></circle><circle class="wg-volcano-dot" r="2.584962500721156" cx="556.6914897595921" cy="200" fill="rgb(214, 214, 233)"></circle><circle class="wg-volcano-dot" r="2.584962500721156" cx="556.6914897595921" cy="200" fill="rgb(214, 214, 233)"></circle><circle class="wg-volcano-dot" r="7.539158811108031" cx="504.267170451615" cy="200" fill="rgb(63, 0, 125)"></circle><circle class="wg-volcano-dot" r="2" cx="578.7280733096784" cy="200" fill="rgb(216, 216, 234)"></circle><circle class="wg-volcano-dot" r="4.321928094887362" cx="519.3317257582519" cy="200" fill="rgb(200, 201, 226)"></circle><circle class="wg-volcano-dot" r="3.584962500721156" cx="528.4203199104852" cy="200" fill="rgb(208, 209, 230)"></circle><circle class="wg-volcano-dot" r="3.321928094887362" cx="530.7379147655263" cy="200" fill="rgb(210, 210, 231)"></circle><circle class="wg-volcano-dot" r="4.321928094887362" cx="517.1036142372124" cy="200" fill="rgb(200, 201, 226)"></circle><circle class="wg-volcano-dot" r="4.459431618637297" cx="515.0928813044258" cy="200" fill="rgb(198, 199, 225)"></circle><circle class="wg-volcano-dot" r="3.807354922057604" cx="520.2919230110147" cy="200" fill="rgb(206, 207, 229)"></circle><circle class="wg-volcano-dot" r="2.584962500721156" cx="540.199057721198" cy="200" fill="rgb(214, 214, 233)"></circle><circle class="wg-volcano-dot" r="2.584962500721156" cx="540.199057721198" cy="200" fill="rgb(214, 214, 233)"></circle><circle class="wg-volcano-dot" r="2.584962500721156" cx="540.199057721198" cy="200" fill="rgb(214, 214, 233)"></circle><circle class="wg-volcano-dot" r="3" cx="528.4203199104852" cy="200" fill="rgb(212, 212, 232)"></circle><circle class="wg-volcano-dot" r="4" cx="514.3424543322053" cy="200" fill="rgb(204, 205, 228)"></circle><circle class="wg-volcano-dot" r="4.169925001442312" cx="512.2130054923038" cy="200" fill="rgb(202, 203, 227)"></circle><circle class="wg-volcano-dot" r="4.169925001442312" cx="512.2130054923038" cy="200" fill="rgb(202, 203, 227)"></circle><circle class="wg-volcano-dot" r="3.807354922057604" cx="513.9501510655477" cy="200" fill="rgb(206, 207, 229)"></circle><circle class="wg-volcano-dot" r="2" cx="552.4791666540265" cy="200" fill="rgb(216, 216, 234)"></circle><circle class="wg-volcano-dot" r="2.584962500721156" cx="532.2933848838715" cy="200" fill="rgb(214, 214, 233)"></circle><circle class="wg-volcano-dot" r="3.321928094887362" cx="517.1036142372124" cy="200" fill="rgb(210, 210, 231)"></circle><circle class="wg-volcano-dot" r="3.321928094887362" cx="512.6983529712118" cy="200" fill="rgb(210, 210, 231)"></circle><circle class="wg-volcano-dot" r="2.584962500721156" cx="524.5985553209447" cy="200" fill="rgb(214, 214, 233)"></circle><circle class="wg-volcano-dot" r="2" cx="540.199057721198" cy="200" fill="rgb(216, 216, 234)"></circle><circle class="wg-volcano-dot" r="4" cx="503.55469291004516" cy="200" fill="rgb(204, 205, 228)"></circle><circle class="wg-volcano-dot" r="4" cx="503.55469291004516" cy="200" fill="rgb(204, 205, 228)"></circle><circle class="wg-volcano-dot" r="3.584962500721156" cx="506.21405743273675" cy="200" fill="rgb(208, 209, 230)"></circle><circle class="wg-volcano-dot" r="3.584962500721156" cx="506.21405743273675" cy="200" fill="rgb(208, 209, 230)"></circle><circle class="wg-volcano-dot" r="5.392317422778761" cx="498.6799738395253" cy="200" fill="rgb(179, 178, 214)"></circle><circle class="wg-volcano-dot" r="4.906890595608519" cx="498.4817333589153" cy="200" fill="rgb(191, 191, 221)"></circle><circle class="wg-volcano-dot" r="4.321928094887362" cx="499.8722854872685" cy="200" fill="rgb(200, 201, 226)"></circle><circle class="wg-volcano-dot" r="4.321928094887362" cx="499.8722854872685" cy="200" fill="rgb(200, 201, 226)"></circle><circle class="wg-volcano-dot" r="3.807354922057604" cx="501.6700421327181" cy="200" fill="rgb(206, 207, 229)"></circle><circle class="wg-volcano-dot" r="3.584962500721156" cx="502.6736570860451" cy="200" fill="rgb(208, 209, 230)"></circle><circle class="wg-volcano-dot" r="3.321928094887362" cx="504.08460859283485" cy="200" fill="rgb(210, 210, 231)"></circle><circle class="wg-volcano-dot" r="3.321928094887362" cx="504.08460859283485" cy="200" fill="rgb(210, 210, 231)"></circle><circle class="wg-volcano-dot" r="2.584962500721156" cx="509.79843903218745" cy="200" fill="rgb(214, 214, 233)"></circle><circle class="wg-volcano-dot" r="4.906890595608519" cx="495.720573453909" cy="200" fill="rgb(191, 191, 221)"></circle><circle class="wg-volcano-dot" r="4.807354922057604" cx="495.720573453909" cy="200" fill="rgb(193, 193, 222)"></circle><circle class="wg-volcano-dot" r="4.700439718141093" cx="495.720573453909" cy="200" fill="rgb(195, 195, 223)"></circle><circle class="wg-volcano-dot" r="3.321928094887362" cx="499.8722854872685" cy="200" fill="rgb(210, 210, 231)"></circle><circle class="wg-volcano-dot" r="4.169925001442312" cx="495.720573453909" cy="200" fill="rgb(202, 203, 227)"></circle><circle class="wg-volcano-dot" r="4.169925001442312" cx="495.720573453909" cy="200" fill="rgb(202, 203, 227)"></circle><circle class="wg-volcano-dot" r="3" cx="500.9196151604984" cy="200" fill="rgb(212, 212, 232)"></circle><circle class="wg-volcano-dot" r="2.584962500721156" cx="502.6736570860451" cy="200" fill="rgb(214, 214, 233)"></circle><circle class="wg-volcano-dot" r="3.321928094887362" cx="495.720573453909" cy="200" fill="rgb(210, 210, 231)"></circle><circle class="wg-volcano-dot" r="3.321928094887362" cx="495.720573453909" cy="200" fill="rgb(210, 210, 231)"></circle><circle class="wg-volcano-dot" r="3" cx="495.720573453909" cy="200" fill="rgb(212, 212, 232)"></circle><circle class="wg-volcano-dot" r="3.807354922057604" cx="489.89130432200596" cy="200" fill="rgb(206, 207, 229)"></circle><circle class="wg-volcano-dot" r="4.321928094887362" cx="489.60290948722457" cy="200" fill="rgb(200, 201, 226)"></circle><circle class="wg-volcano-dot" r="4.169925001442312" cx="488.93110706924153" cy="200" fill="rgb(202, 203, 227)"></circle><circle class="wg-volcano-dot" r="3.321928094887362" cx="487.59217655444" cy="200" fill="rgb(210, 210, 231)"></circle><circle class="wg-volcano-dot" r="4.459431618637297" cx="486.50129053601825" cy="200" fill="rgb(198, 199, 225)"></circle><circle class="wg-volcano-dot" r="2.584962500721156" cx="488.93110706924153" cy="200" fill="rgb(214, 214, 233)"></circle><circle class="wg-volcano-dot" r="2" cx="495.720573453909" cy="200" fill="rgb(216, 216, 234)"></circle><circle class="wg-volcano-dot" r="2" cx="517.1036142372124" cy="200" fill="rgb(218, 218, 235)"></circle><circle class="wg-volcano-dot" r="3" cx="480.6629479930615" cy="200" fill="rgb(212, 212, 232)"></circle><circle class="wg-volcano-dot" r="3.584962500721156" cx="479.03737181638155" cy="200" fill="rgb(208, 209, 230)"></circle><circle class="wg-volcano-dot" r="3.584962500721156" cx="479.03737181638155" cy="200" fill="rgb(208, 209, 230)"></circle><circle class="wg-volcano-dot" r="5.857980995127572" cx="486.62647015107393" cy="200" fill="rgb(163, 161, 204)"></circle><circle class="wg-volcano-dot" r="4.459431618637297" cx="481.10788101596415" cy="200" fill="rgb(198, 199, 225)"></circle><circle class="wg-volcano-dot" r="3" cx="475.81343874372607" cy="200" fill="rgb(212, 212, 232)"></circle><circle class="wg-volcano-dot" r="3.321928094887362" cx="475.81343874372607" cy="200" fill="rgb(210, 210, 231)"></circle><circle class="wg-volcano-dot" r="2.584962500721156" cx="475.81343874372607" cy="200" fill="rgb(214, 214, 233)"></circle><circle class="wg-volcano-dot" r="4" cx="475.81343874372607" cy="200" fill="rgb(204, 205, 228)"></circle><circle class="wg-volcano-dot" r="2" cx="475.81343874372607" cy="200" fill="rgb(216, 216, 234)"></circle><circle class="wg-volcano-dot" r="2" cx="475.81343874372607" cy="200" fill="rgb(216, 216, 234)"></circle><circle class="wg-volcano-dot" r="4.321928094887362" cx="475.81343874372607" cy="200" fill="rgb(200, 201, 226)"></circle><circle class="wg-volcano-dot" r="3" cx="466.3522957880551" cy="200" fill="rgb(212, 212, 232)"></circle><circle class="wg-volcano-dot" r="3" cx="466.3522957880551" cy="200" fill="rgb(212, 212, 232)"></circle><circle class="wg-volcano-dot" r="2" cx="466.3522957880551" cy="200" fill="rgb(216, 216, 234)"></circle><circle class="wg-volcano-dot" r="3.321928094887362" cx="464.49673307045276" cy="200" fill="rgb(210, 210, 231)"></circle><circle class="wg-volcano-dot" r="3.321928094887362" cx="464.49673307045276" cy="200" fill="rgb(210, 210, 231)"></circle><circle class="wg-volcano-dot" r="4.459431618637297" cx="470.61439703713734" cy="200" fill="rgb(198, 199, 225)"></circle><circle class="wg-volcano-dot" r="4.459431618637297" cx="470.61439703713734" cy="200" fill="rgb(198, 199, 225)"></circle><circle class="wg-volcano-dot" r="2" cx="457.1915578654298" cy="200" fill="rgb(216, 216, 234)"></circle><circle class="wg-volcano-dot" r="3.584962500721156" cx="463.2662876741337" cy="200" fill="rgb(208, 209, 230)"></circle><circle class="wg-volcano-dot" r="2.584962500721156" cx="457.1915578654298" cy="200" fill="rgb(214, 214, 233)"></circle><circle class="wg-volcano-dot" r="2.584962500721156" cx="457.1915578654298" cy="200" fill="rgb(214, 214, 233)"></circle><circle class="wg-volcano-dot" r="3.321928094887362" cx="460.8210272074819" cy="200" fill="rgb(210, 210, 231)"></circle><circle class="wg-volcano-dot" r="4.807354922057604" cx="469.0239723590588" cy="200" fill="rgb(193, 193, 222)"></circle><circle class="wg-volcano-dot" r="4.169925001442312" cx="463.2662876741337" cy="200" fill="rgb(202, 203, 227)"></circle><circle class="wg-volcano-dot" r="3" cx="452.7179952597389" cy="200" fill="rgb(212, 212, 232)"></circle><circle class="wg-volcano-dot" r="3" cx="452.7179952597389" cy="200" fill="rgb(212, 212, 232)"></circle><circle class="wg-volcano-dot" r="3.584962500721156" cx="457.1915578654298" cy="200" fill="rgb(208, 209, 230)"></circle><circle class="wg-volcano-dot" r="4" cx="459.4546205109967" cy="200" fill="rgb(204, 205, 228)"></circle><circle class="wg-volcano-dot" r="2.584962500721156" cx="445.41282005471624" cy="200" fill="rgb(214, 214, 233)"></circle><circle class="wg-volcano-dot" r="2.584962500721156" cx="445.41282005471624" cy="200" fill="rgb(214, 214, 233)"></circle><circle class="wg-volcano-dot" r="2.584962500721156" cx="445.41282005471624" cy="200" fill="rgb(214, 214, 233)"></circle><circle class="wg-volcano-dot" r="3.584962500721156" cx="454.2014895722357" cy="200" fill="rgb(208, 209, 230)"></circle><circle class="wg-volcano-dot" r="2" cx="439.69898961536194" cy="200" fill="rgb(218, 218, 235)"></circle><circle class="wg-volcano-dot" r="3.584962500721156" cx="451.2420891866195" cy="200" fill="rgb(208, 209, 230)"></circle><circle class="wg-volcano-dot" r="2.584962500721156" cx="439.69898961536194" cy="200" fill="rgb(214, 214, 233)"></circle><circle class="wg-volcano-dot" r="3" cx="439.69898961536194" cy="200" fill="rgb(212, 212, 232)"></circle><circle class="wg-volcano-dot" r="3.807354922057604" cx="449.56453208807557" cy="200" fill="rgb(206, 207, 229)"></circle><circle class="wg-volcano-dot" r="4.459431618637297" cx="457.1915578654298" cy="200" fill="rgb(198, 199, 225)"></circle><circle class="wg-volcano-dot" r="4.807354922057604" cx="459.7793690069293" cy="200" fill="rgb(193, 193, 222)"></circle><circle class="wg-volcano-dot" r="2" cx="423.20655757696755" cy="200" fill="rgb(216, 216, 234)"></circle><circle class="wg-volcano-dot" r="2" cx="423.20655757696755" cy="200" fill="rgb(216, 216, 234)"></circle><circle class="wg-volcano-dot" r="3" cx="435.48666650979607" cy="200" fill="rgb(212, 212, 232)"></circle><circle class="wg-volcano-dot" r="3.321928094887362" cx="439.69898961536194" cy="200" fill="rgb(210, 210, 231)"></circle><circle class="wg-volcano-dot" r="4" cx="446.13507076519187" cy="200" fill="rgb(204, 205, 228)"></circle><circle class="wg-volcano-dot" r="5.087462841250339" cx="460.3916536041728" cy="200" fill="rgb(187, 187, 218)"></circle><circle class="wg-volcano-dot" r="2" cx="407.6060551767128" cy="200" fill="rgb(218, 218, 235)"></circle><circle class="wg-volcano-dot" r="2" cx="407.6060551767128" cy="200" fill="rgb(216, 216, 234)"></circle><circle class="wg-volcano-dot" r="4.459431618637297" cx="447.51895355314997" cy="200" fill="rgb(198, 199, 225)"></circle><circle class="wg-volcano-dot" r="4" cx="439.69898961536194" cy="200" fill="rgb(204, 205, 228)"></circle><circle class="wg-volcano-dot" r="2.584962500721156" cx="407.6060551767128" cy="200" fill="rgb(214, 214, 233)"></circle><circle class="wg-volcano-dot" r="2" cx="378.728073309678" cy="200" fill="rgb(218, 218, 235)"></circle><circle class="wg-volcano-dot" r="4.459431618637297" cx="441.2461193712829" cy="200" fill="rgb(198, 199, 225)"></circle><circle class="wg-volcano-dot" r="3.321928094887362" cx="416.8647856314997" cy="200" fill="rgb(210, 210, 231)"></circle><circle class="wg-volcano-dot" r="2" cx="385.68115694181313" cy="200" fill="rgb(216, 216, 234)"></circle><circle class="wg-volcano-dot" r="2" cx="385.68115694181313" cy="200" fill="rgb(216, 216, 234)"></circle><circle class="wg-volcano-dot" r="2" cx="365.30523413797044" cy="200" fill="rgb(218, 218, 235)"></circle><circle class="wg-volcano-dot" r="4" cx="429.28128738567125" cy="200" fill="rgb(204, 205, 228)"></circle><circle class="wg-volcano-dot" r="3.321928094887362" cx="413.7454146212962" cy="200" fill="rgb(210, 210, 231)"></circle><circle class="wg-volcano-dot" r="3.321928094887362" cx="413.7454146212962" cy="200" fill="rgb(210, 210, 231)"></circle><circle class="wg-volcano-dot" r="4.169925001442312" cx="430.4204085184719" cy="200" fill="rgb(202, 203, 227)"></circle><circle class="wg-volcano-dot" r="2" cx="378.728073309678" cy="200" fill="rgb(216, 216, 234)"></circle><circle class="wg-volcano-dot" r="4.321928094887362" cx="432.9884776731568" cy="200" fill="rgb(200, 201, 226)"></circle><circle class="wg-volcano-dot" r="2" cx="352.4791666540275" cy="200" fill="rgb(218, 218, 235)"></circle><circle class="wg-volcano-dot" r="2" cx="352.4791666540275" cy="200" fill="rgb(218, 218, 235)"></circle><circle class="wg-volcano-dot" r="2" cx="352.4791666540275" cy="200" fill="rgb(218, 218, 235)"></circle><circle class="wg-volcano-dot" r="2.584962500721156" cx="388.0365904970839" cy="200" fill="rgb(214, 214, 233)"></circle><circle class="wg-volcano-dot" r="2" cx="340.19905772119847" cy="200" fill="rgb(218, 218, 235)"></circle><circle class="wg-volcano-dot" r="2" cx="340.19905772119847" cy="200" fill="rgb(218, 218, 235)"></circle><circle class="wg-volcano-dot" r="2.584962500721156" cx="383.3447959322863" cy="200" fill="rgb(214, 214, 233)"></circle><circle class="wg-volcano-dot" r="3.321928094887362" cx="401.5946084054766" cy="200" fill="rgb(210, 210, 231)"></circle><circle class="wg-volcano-dot" r="4.459431618637297" cx="429.09531315546354" cy="200" fill="rgb(198, 199, 225)"></circle><circle class="wg-volcano-dot" r="4.459431618637297" cx="429.09531315546354" cy="200" fill="rgb(198, 199, 225)"></circle><circle class="wg-volcano-dot" r="5.321928094887363" cx="445.70150342864997" cy="200" fill="rgb(181, 180, 215)"></circle><circle class="wg-volcano-dot" r="5.087462841250339" cx="440.6991258270354" cy="200" fill="rgb(187, 187, 218)"></circle><circle class="wg-volcano-dot" r="3.807354922057604" cx="411.97794196946074" cy="200" fill="rgb(206, 207, 229)"></circle><circle class="wg-volcano-dot" r="4.321928094887362" cx="421.60799942626113" cy="200" fill="rgb(200, 201, 226)"></circle><circle class="wg-volcano-dot" r="2" cx="352.4791666540275" cy="200" fill="rgb(216, 216, 234)"></circle><circle class="wg-volcano-dot" r="4.459431618637297" cx="423.20655757696755" cy="200" fill="rgb(198, 199, 225)"></circle><circle class="wg-volcano-dot" r="2.584962500721156" cx="369.7104954039703" cy="200" fill="rgb(214, 214, 233)"></circle><circle class="wg-volcano-dot" r="3.584962500721156" cx="400.11111409298024" cy="200" fill="rgb(208, 209, 230)"></circle><circle class="wg-volcano-dot" r="3.584962500721156" cx="397.6554481372927" cy="200" fill="rgb(208, 209, 230)"></circle><circle class="wg-volcano-dot" r="2.584962500721156" cx="365.30523413797044" cy="200" fill="rgb(214, 214, 233)"></circle><circle class="wg-volcano-dot" r="3" cx="378.728073309678" cy="200" fill="rgb(212, 212, 232)"></circle><circle class="wg-volcano-dot" r="4.169925001442312" cx="412.71307359814034" cy="200" fill="rgb(202, 203, 227)"></circle><circle class="wg-volcano-dot" r="3" cx="375.31337063788976" cy="200" fill="rgb(212, 212, 232)"></circle><circle class="wg-volcano-dot" r="2" cx="295.720573453909" cy="200" fill="rgb(218, 218, 235)"></circle><circle class="wg-volcano-dot" r="2" cx="328.42031991048515" cy="200" fill="rgb(216, 216, 234)"></circle><circle class="wg-volcano-dot" r="3" cx="365.30523413797044" cy="200" fill="rgb(212, 212, 232)"></circle><circle class="wg-volcano-dot" r="3" cx="365.30523413797044" cy="200" fill="rgb(212, 212, 232)"></circle><circle class="wg-volcano-dot" r="3" cx="365.30523413797044" cy="200" fill="rgb(212, 212, 232)"></circle><circle class="wg-volcano-dot" r="3.807354922057604" cx="392.80593888795755" cy="200" fill="rgb(206, 207, 229)"></circle><circle class="wg-volcano-dot" r="2.584962500721156" cx="348.3274546206679" cy="200" fill="rgb(214, 214, 233)"></circle><circle class="wg-volcano-dot" r="2" cx="275.8134387437261" cy="200" fill="rgb(218, 218, 235)"></circle><circle class="wg-volcano-dot" r="2" cx="275.8134387437261" cy="200" fill="rgb(218, 218, 235)"></circle><circle class="wg-volcano-dot" r="2.584962500721156" cx="344.23463410872466" cy="200" fill="rgb(214, 214, 233)"></circle><circle class="wg-volcano-dot" r="3.807354922057604" cx="388.7131183760142" cy="200" fill="rgb(206, 207, 229)"></circle><circle class="wg-volcano-dot" r="4.700439718141093" cx="414.70163424765593" cy="200" fill="rgb(195, 195, 223)"></circle><circle class="wg-volcano-dot" r="2.584962500721156" cx="340.19905772119847" cy="200" fill="rgb(214, 214, 233)"></circle><circle class="wg-volcano-dot" r="3.584962500721156" cx="378.728073309678" cy="200" fill="rgb(208, 209, 230)"></circle><circle class="wg-volcano-dot" r="2" cx="266.35229578805496" cy="200" fill="rgb(218, 218, 235)"></circle><circle class="wg-volcano-dot" r="2" cx="266.35229578805496" cy="200" fill="rgb(218, 218, 235)"></circle><circle class="wg-volcano-dot" r="2" cx="311.60746695279005" cy="200" fill="rgb(216, 216, 234)"></circle><circle class="wg-volcano-dot" r="3.807354922057604" cx="384.67754198848826" cy="200" fill="rgb(206, 207, 229)"></circle><circle class="wg-volcano-dot" r="2.584962500721156" cx="336.21914623365785" cy="200" fill="rgb(214, 214, 233)"></circle><circle class="wg-volcano-dot" r="2" cx="257.1915578654302" cy="200" fill="rgb(218, 218, 235)"></circle><circle class="wg-volcano-dot" r="2.584962500721156" cx="324.5985553209442" cy="200" fill="rgb(214, 214, 233)"></circle><circle class="wg-volcano-dot" r="3.807354922057604" cx="374.8288381845183" cy="200" fill="rgb(206, 207, 229)"></circle><circle class="wg-volcano-dot" r="2" cx="239.69898961536228" cy="200" fill="rgb(218, 218, 235)"></circle><circle class="wg-volcano-dot" r="3.807354922057604" cx="372.89880417777437" cy="200" fill="rgb(206, 207, 229)"></circle><circle class="wg-volcano-dot" r="2" cx="290.6135550324814" cy="200" fill="rgb(216, 216, 234)"></circle><circle class="wg-volcano-dot" r="2" cx="231.33495447643642" cy="200" fill="rgb(218, 218, 235)"></circle><circle class="wg-volcano-dot" r="3" cx="337.20898942800414" cy="200" fill="rgb(212, 212, 232)"></circle><circle class="wg-volcano-dot" r="2" cx="285.5953588399157" cy="200" fill="rgb(216, 216, 234)"></circle><circle class="wg-volcano-dot" r="2.584962500721156" cx="313.4279083742407" cy="200" fill="rgb(214, 214, 233)"></circle><circle class="wg-volcano-dot" r="2" cx="207.6060551767124" cy="200" fill="rgb(218, 218, 235)"></circle><circle class="wg-volcano-dot" r="2" cx="266.35229578805496" cy="200" fill="rgb(216, 216, 234)"></circle><circle class="wg-volcano-dot" r="3" cx="317.10361423721133" cy="200" fill="rgb(212, 212, 232)"></circle><circle class="wg-volcano-dot" r="2" cx="192.80593888795755" cy="200" fill="rgb(218, 218, 235)"></circle><circle class="wg-volcano-dot" r="2" cx="178.72807330967748" cy="200" fill="rgb(218, 218, 235)"></circle><circle class="wg-volcano-dot" r="2" cx="243.9737197738754" cy="200" fill="rgb(216, 216, 234)"></circle><circle class="wg-volcano-dot" r="3" cx="300.9196151604978" cy="200" fill="rgb(212, 212, 232)"></circle><circle class="wg-volcano-dot" r="2" cx="165.30523413797047" cy="200" fill="rgb(218, 218, 235)"></circle><circle class="wg-volcano-dot" r="2" cx="165.30523413797047" cy="200" fill="rgb(218, 218, 235)"></circle><circle class="wg-volcano-dot" r="2" cx="231.33495447643642" cy="200" fill="rgb(216, 216, 234)"></circle><circle class="wg-volcano-dot" r="2" cx="146.2737875299025" cy="200" fill="rgb(218, 218, 235)"></circle><circle class="wg-volcano-dot" r="2" cx="146.2737875299025" cy="200" fill="rgb(218, 218, 235)"></circle><circle class="wg-volcano-dot" r="3.321928094887362" cx="306.2140574327362" cy="200" fill="rgb(210, 210, 231)"></circle><circle class="wg-volcano-dot" r="2" cx="140.19905772119893" cy="200" fill="rgb(218, 218, 235)"></circle><circle class="wg-volcano-dot" r="2" cx="140.19905772119893" cy="200" fill="rgb(218, 218, 235)"></circle><circle class="wg-volcano-dot" r="4" cx="334.2495890423884" cy="200" fill="rgb(204, 205, 228)"></circle><circle class="wg-volcano-dot" r="2" cx="143.22043619924037" cy="200" fill="rgb(216, 216, 234)"></circle><circle class="wg-volcano-dot" r="2" cx="43.97371977387472" cy="200" fill="rgb(218, 218, 235)"></circle><circle class="wg-volcano-dot" r="2" cx="31.3349544764371" cy="200" fill="rgb(218, 218, 235)"></circle></g><g class="x-axis" transform="translate(0,400)" fill="none" font-size="10" font-family="sans-serif" text-anchor="middle"><path class="domain" stroke="currentColor" d="M0.5,6V0.5H900.5V6"></path><g class="tick" opacity="1" transform="translate(0.5,0)"><line stroke="currentColor" y2="6"></line><text fill="currentColor" y="9" dy="0.71em">-2.5</text></g><g class="tick" opacity="1" transform="translate(100.5,0)"><line stroke="currentColor" y2="6"></line><text fill="currentColor" y="9" dy="0.71em">-2.0</text></g><g class="tick" opacity="1" transform="translate(200.5,0)"><line stroke="currentColor" y2="6"></line><text fill="currentColor" y="9" dy="0.71em">-1.5</text></g><g class="tick" opacity="1" transform="translate(300.5,0)"><line stroke="currentColor" y2="6"></line><text fill="currentColor" y="9" dy="0.71em">-1.0</text></g><g class="tick" opacity="1" transform="translate(400.5,0)"><line stroke="currentColor" y2="6"></line><text fill="currentColor" y="9" dy="0.71em">-0.5</text></g><g class="tick" opacity="1" transform="translate(500.5,0)"><line stroke="currentColor" y2="6"></line><text fill="currentColor" y="9" dy="0.71em">0.0</text></g><g class="tick" opacity="1" transform="translate(600.5,0)"><line stroke="currentColor" y2="6"></line><text fill="currentColor" y="9" dy="0.71em">0.5</text></g><g class="tick" opacity="1" transform="translate(700.5,0)"><line stroke="currentColor" y2="6"></line><text fill="currentColor" y="9" dy="0.71em">1.0</text></g><g class="tick" opacity="1" transform="translate(800.5,0)"><line stroke="currentColor" y2="6"></line><text fill="currentColor" y="9" dy="0.71em">1.5</text></g><g class="tick" opacity="1" transform="translate(900.5,0)"><line stroke="currentColor" y2="6"></line><text fill="currentColor" y="9" dy="0.71em">2.0</text></g><text class="x-label" x="900" y="-6" fill="#000" style="text-anchor: end;">log2 of enrichment ratio</text></g><g class="y-axis" transform="translate(500,0)" fill="none" font-size="10" font-family="sans-serif" text-anchor="end"><path class="domain" stroke="currentColor" d="M-6,400.5H0.5V0.5H-6"></path><text class="y-label" transform="rotate(-90)" y="6" dy=".71em" fill="#000" style="text-anchor: end;">-Log10 of FDR</text></g></g><g class="legend"><defs><linearGradient id="gradient" x1="0%" y1="100%" x2="100%" y2="100%" spreadMethod="pad"><stop offset="0%" stop-color="#dadaeb" stop-opacity="1"></stop><stop offset="16.67%" stop-color="#bcbddc" stop-opacity="1"></stop><stop offset="33.33%" stop-color="#9e9ac8" stop-opacity="1"></stop><stop offset="50%" stop-color="#807dba" stop-opacity="1"></stop><stop offset="66.67%" stop-color="#6a51a3" stop-opacity="1"></stop><stop offset="83.33%" stop-color="#54278f" stop-opacity="1"></stop><stop offset="100%" stop-color="#3f007d" stop-opacity="1"></stop></linearGradient></defs><rect width="100" height="20" transform="translate(10,0)" style="fill: url(&quot;#gradient&quot;);"></rect><g class="y-axis" transform="translate(10,20)" fill="none" font-size="10" font-family="sans-serif" text-anchor="middle"><path class="domain" stroke="currentColor" d="M0.5,6V0.5H100.5V6"></path><g class="tick" opacity="1" transform="translate(21.152173913043477,0)"><line stroke="currentColor" y2="6"></line><text fill="currentColor" y="9" dy="0.71em">20</text></g><g class="tick" opacity="1" transform="translate(42.891304347826086,0)"><line stroke="currentColor" y2="6"></line><text fill="currentColor" y="9" dy="0.71em">40</text></g><g class="tick" opacity="1" transform="translate(64.63043478260869,0)"><line stroke="currentColor" y2="6"></line><text fill="currentColor" y="9" dy="0.71em">60</text></g><g class="tick" opacity="1" transform="translate(86.36956521739131,0)"><line stroke="currentColor" y2="6"></line><text fill="currentColor" y="9" dy="0.71em">80</text></g></g></g></svg>